# Made in Blockbench 4.12.5
mtllib citystreet_light.mtl

o cylinder
v 6.938893903907228e-18 0 -1.3877787807814457e-17
v 6.938893903907228e-18 3.75 -1.3877787807814457e-17
v 0.03883252147247767 0 0.12499999999999997
v 0.03883252147247767 3.75 0.12499999999999997
v 0.09375 0 0.05177669529663687
v 0.09375 3.75 0.05177669529663687
v 0.09375 0 -0.05177669529663689
v 0.09375 3.75 -0.05177669529663689
v 0.038832521472477684 0 -0.125
v 0.038832521472477684 3.75 -0.125
v -0.03883252147247765 0 -0.12500000000000003
v -0.03883252147247765 3.75 -0.12500000000000003
v -0.09374999999999997 0 -0.051776695296636976
v -0.09374999999999997 3.75 -0.051776695296636976
v -0.09375 0 0.0517766952966369
v -0.09375 3.75 0.0517766952966369
v -0.03883252147247772 0 0.12499999999999994
v -0.03883252147247772 3.75 0.12499999999999994
vt 0.1352995721667871 0.9043306230449276
vt 0.09567311295000229 1
vt 0 0.9043306230449276
vt 0 0.9849624060150376
vt 0.006484931506849316 0.9849624060150376
vt 0.006484931506849316 1
vt 0 1
vt 0 0.8647004278332129
vt 0.09566937695507241 0.9043268870499978
vt 5.551115123125783e-17 1
vt 0.125 0.89644375
vt 0.125 1
vt 0 0.948221875
vt 0 0.9849624060150376
vt 0.006484931506849316 0.9849624060150376
vt 0.006484931506849316 1
vt 0 1
vt 0.125 0.89644375
vt 0.125 1
vt 0 0.948221875
vt 0 0.8647004278332129
vt 0.09566937695507241 0.9043268870499978
vt 5.551115123125783e-17 1
vt 0 0.9849624060150376
vt 0.006484931506849316 0.9849624060150376
vt 0.006484931506849316 1
vt 0 1
vt 0.1352995721667871 0.9043306230449276
vt 0.09567311295000229 1
vt 0 0.9043306230449276
vt 0 0.875
vt 0.10355625000000002 0.875
vt 0.05177812500000001 1
vt 0 0.9849624060150376
vt 0.006484931506849316 0.9849624060150376
vt 0.006484931506849316 1
vt 0 1
vt 0.10355625000000002 1
vt 0 1
vt 0.05177812500000001 0.875
vt 0 0.9999999999999999
vt 0.03962645921678487 0.9043306230449275
vt 0.13529957216678706 1
vt 0 0.9849624060150376
vt 0.006484931506849316 0.9849624060150376
vt 0.006484931506849316 1
vt 0 1
vt 0.0956693769550724 1
vt 0 0.9603735407832151
vt 0.09566937695507241 0.8647004278332129
vt 0 1
vt 0 0.89644375
vt 0.125 0.948221875
vt 0 0.9849624060150376
vt 0.006484931506849316 0.9849624060150376
vt 0.006484931506849316 1
vt 0 1
vt 0 1
vt 0 0.89644375
vt 0.125 0.948221875
vt 0.0956693769550724 1
vt 0 0.9603735407832151
vt 0.09566937695507241 0.8647004278332129
vt 0 0.9849624060150376
vt 0.006484931506849316 0.9849624060150376
vt 0.006484931506849316 1
vt 0 1
vt 0 0.9999999999999999
vt 0.03962645921678487 0.9043306230449275
vt 0.13529957216678706 1
vt 0.10355625000000002 1
vt 0 1
vt 0.05177812500000001 0.875
vt 0 0.9849624060150376
vt 0.006484931506849316 0.9849624060150376
vt 0.006484931506849316 1
vt 0 1
vt 0 0.875
vt 0.10355625000000002 0.875
vt 0.05177812500000001 1
vn 0 -1 0
vn 0.8 0 0.5999999999999999
vn 0 1 0
vn 0 -1 0
vn 1 0 0
vn 0 1 0
vn 0 -1 0
vn 0.8000000000000002 0 -0.6
vn 0 1 0
vn 0 -1 0
vn 3.573753977745242e-16 0 -1
vn 0 1 0
vn 0 -1 0
vn -0.7999999999999998 0 -0.6000000000000002
vn 0 1 0
vn 0 -1 0
vn -1 0 -2.680315483308929e-16
vn 0 1 0
vn 0 -1 0
vn -0.8 0 0.5999999999999999
vn 0 1 0
vn 0 -1 0
vn -3.57375397774524e-16 0 1
vn 0 1 0
usemtl none
f 5/1/1 3/2/1 1/3/1
usemtl m_3672095b-dda8-3597-5549-6b20843bd44d
f 3/4/2 5/5/2 6/6/2 4/7/2
usemtl none
f 4/8/3 6/9/3 2/10/3
f 7/11/4 5/12/4 1/13/4
usemtl m_3672095b-dda8-3597-5549-6b20843bd44d
f 5/14/5 7/15/5 8/16/5 6/17/5
usemtl none
f 6/18/6 8/19/6 2/20/6
f 9/21/7 7/22/7 1/23/7
usemtl m_3672095b-dda8-3597-5549-6b20843bd44d
f 7/24/8 9/25/8 10/26/8 8/27/8
usemtl none
f 8/28/9 10/29/9 2/30/9
f 11/31/10 9/32/10 1/33/10
usemtl m_3672095b-dda8-3597-5549-6b20843bd44d
f 9/34/11 11/35/11 12/36/11 10/37/11
usemtl none
f 10/38/12 12/39/12 2/40/12
f 13/41/13 11/42/13 1/43/13
usemtl m_3672095b-dda8-3597-5549-6b20843bd44d
f 11/44/14 13/45/14 14/46/14 12/47/14
usemtl none
f 12/48/15 14/49/15 2/50/15
f 15/51/16 13/52/16 1/53/16
usemtl m_3672095b-dda8-3597-5549-6b20843bd44d
f 13/54/17 15/55/17 16/56/17 14/57/17
usemtl none
f 14/58/18 16/59/18 2/60/18
f 17/61/19 15/62/19 1/63/19
usemtl m_3672095b-dda8-3597-5549-6b20843bd44d
f 15/64/20 17/65/20 18/66/20 16/67/20
usemtl none
f 16/68/21 18/69/21 2/70/21
f 3/71/22 17/72/22 1/73/22
usemtl m_3672095b-dda8-3597-5549-6b20843bd44d
f 17/74/23 3/75/23 4/76/23 18/77/23
usemtl none
f 18/78/24 4/79/24 2/80/24
o cylinder
v 0.006250000000000019 3.75 -0.24999999999999997
v 0.006250000000000019 3.875 -0.24999999999999997
v 0.07614853865045976 3.75 0.12499999999999997
v 0.07614853865045976 3.875 0.12499999999999997
v 0.17500000000000002 3.75 -0.09466991411008935
v 0.17500000000000002 3.875 -0.09466991411008935
v 0.17500000000000002 3.75 -0.4053300858899106
v 0.17500000000000002 3.875 -0.4053300858899106
v 0.07614853865045981 3.75 -0.6249999999999999
v 0.07614853865045981 3.875 -0.6249999999999999
v -0.06364853865045977 3.75 -0.625
v -0.06364853865045977 3.875 -0.625
v -0.16249999999999995 3.75 -0.40533008588991093
v -0.16249999999999995 3.875 -0.40533008588991093
v -0.1625 3.75 -0.09466991411008926
v -0.1625 3.875 -0.09466991411008926
v -0.0636485386504599 3.75 0.12499999999999989
v -0.0636485386504599 3.875 0.12499999999999989
vt 0.008472771642538526 0.9942454510102212
vt 0.005991271261056895 1
vt 0 0.9942454510102212
vt 0 0.9849624060150376
vt 0.006484931506849316 0.9849624060150376
vt 0.006484931506849316 1
vt 0 1
vt 0 0.9918616798696669
vt 0.005991037304427235 0.9942452262887217
vt 3.476236476321429e-18 1
vt 0.007827788649706457 0.9937710526315789
vt 0.007827788649706457 1
vt 0 0.9968855263157895
vt 0 0.9849624060150376
vt 0.006484931506849316 0.9849624060150376
vt 0.006484931506849316 1
vt 0 1
vt 0.007827788649706457 0.9937710526315789
vt 0.007827788649706457 1
vt 0 0.9968855263157895
vt 0 0.9918616798696669
vt 0.005991037304427235 0.9942452262887217
vt 3.476236476321429e-18 1
vt 0 0.9849624060150376
vt 0.006484931506849316 0.9849624060150376
vt 0.006484931506849316 1
vt 0 1
vt 0.008472771642538526 0.9942454510102212
vt 0.005991271261056895 1
vt 0 0.9942454510102212
vt 0 0.9924812030075187
vt 0.006484931506849316 0.9924812030075187
vt 0.003242465753424658 1
vt 0 0.9849624060150376
vt 0.006484931506849316 0.9849624060150376
vt 0.006484931506849316 1
vt 0 1
vt 0.006484931506849316 1
vt 0 1
vt 0.003242465753424658 0.9924812030075187
vt 0 1
vt 0.0024815003814816355 0.9942454510102212
vt 0.008472771642538525 1
vt 0 0.9849624060150376
vt 0.006484931506849316 0.9849624060150376
vt 0.006484931506849316 1
vt 0 1
vt 0.0059910373044272346 1
vt 0 0.9976164535809453
vt 0.005991037304427235 0.9918616798696669
vt 0 1
vt 0 0.9937710526315789
vt 0.007827788649706457 0.9968855263157895
vt 0 0.9849624060150376
vt 0.006484931506849316 0.9849624060150376
vt 0.006484931506849316 1
vt 0 1
vt 0 1
vt 0 0.9937710526315789
vt 0.007827788649706457 0.9968855263157895
vt 0.0059910373044272346 1
vt 0 0.9976164535809453
vt 0.005991037304427235 0.9918616798696669
vt 0 0.9849624060150376
vt 0.006484931506849316 0.9849624060150376
vt 0.006484931506849316 1
vt 0 1
vt 0 1
vt 0.0024815003814816355 0.9942454510102212
vt 0.008472771642538525 1
vt 0.10355625000000002 1
vt 0 1
vt 0.05177812500000001 0.875
vt 0 0.9849624060150376
vt 0.006484931506849316 0.9849624060150376
vt 0.006484931506849316 1
vt 0 1
vt 0 0.9924812030075187
vt 0.006484931506849316 0.9924812030075187
vt 0.003242465753424658 1
vn 0 -1 0
vn 0.9119215051751063 0 0.4103646773287981
vn 0 1 0
vn 0 -1 0
vn 1 0 0
vn 0 1 0
vn 0 -1 0
vn 0.9119215051751065 0 -0.41036467732879806
vn 0 1 0
vn 0 -1 0
vn 7.941675506100537e-16 0 -1
vn 0 1 0
vn 0 -1 0
vn -0.9119215051751064 0 -0.4103646773287983
vn 0 1 0
vn 0 -1 0
vn -1 0 -1.7868769888726192e-16
vn 0 1 0
vn 0 -1 0
vn -0.9119215051751065 0 0.41036467732879783
vn 0 1 0
vn 0 -1 0
vn -5.9562566295754e-16 0 1
vn 0 1 0
usemtl m_3672095b-dda8-3597-5549-6b20843bd44d
f 23/81/25 21/82/25 19/83/25
f 21/84/26 23/85/26 24/86/26 22/87/26
f 22/88/27 24/89/27 20/90/27
f 25/91/28 23/92/28 19/93/28
f 23/94/29 25/95/29 26/96/29 24/97/29
f 24/98/30 26/99/30 20/100/30
f 27/101/31 25/102/31 19/103/31
f 25/104/32 27/105/32 28/106/32 26/107/32
f 26/108/33 28/109/33 20/110/33
f 29/111/34 27/112/34 19/113/34
f 27/114/35 29/115/35 30/116/35 28/117/35
f 28/118/36 30/119/36 20/120/36
f 31/121/37 29/122/37 19/123/37
f 29/124/38 31/125/38 32/126/38 30/127/38
f 30/128/39 32/129/39 20/130/39
f 33/131/40 31/132/40 19/133/40
f 31/134/41 33/135/41 34/136/41 32/137/41
f 32/138/42 34/139/42 20/140/42
f 35/141/43 33/142/43 19/143/43
f 33/144/44 35/145/44 36/146/44 34/147/44
f 34/148/45 36/149/45 20/150/45
usemtl none
f 21/151/46 35/152/46 19/153/46
usemtl m_3672095b-dda8-3597-5549-6b20843bd44d
f 35/154/47 21/155/47 22/156/47 36/157/47
f 36/158/48 22/159/48 20/160/48
o cylinder
v 0.0062500000000000056 3.71875 -0.34375
v 0.0062500000000000056 3.78125 -0.34375
v 0.05026019100214135 3.71875 -0.08750000000000002
v 0.05026019100214135 3.78125 -0.08750000000000002
v 0.11250000000000002 3.71875 -0.23760777464189436
v 0.11250000000000002 3.78125 -0.23760777464189436
v 0.11250000000000002 3.71875 -0.44989222535810547
v 0.11250000000000002 3.78125 -0.44989222535810547
v 0.05026019100214138 3.71875 -0.6
v 0.05026019100214138 3.78125 -0.6
v -0.03776019100214134 3.71875 -0.6
v -0.03776019100214134 3.78125 -0.6
v -0.09999999999999995 3.71875 -0.4498922253581058
v -0.09999999999999995 3.78125 -0.4498922253581058
v -0.1 3.71875 -0.23760777464189436
v -0.1 3.78125 -0.23760777464189436
v -0.037760191002141424 3.71875 -0.08750000000000002
v -0.037760191002141424 3.78125 -0.08750000000000002
vt 0.115625 0.8999468749999999
vt 0.08450625 0.975
vt 0.0625 0.846875
vt 0.318803125 0.96875
vt 0.400053125 0.96875
vt 0.400053125 1
vt 0.318803125 1
vt 0.24075625 0.74375
vt 0.271875 0.8188031250000001
vt 0.21875 0.871875
vt 0.115625 0.7938031249999999
vt 0.115625 0.8999468749999999
vt 0.0625 0.846875
vt 0.400053125 0.96875
vt 0.506196875 0.96875
vt 0.506196875 1
vt 0.400053125 1
vt 0.271875 0.8188031250000001
vt 0.271875 0.9249468750000001
vt 0.21875 0.871875
vt 0.08450625 0.71875
vt 0.115625 0.7938031249999999
vt 0.0625 0.846875
vt 0.506196875 0.96875
vt 0.5874468749999999 0.96875
vt 0.5874468749999999 1
vt 0.506196875 1
vt 0.271875 0.9249468750000001
vt 0.24075625 1
vt 0.21875 0.871875
vt 0.040493749999999995 0.71875
vt 0.08450625 0.71875
vt 0.0625 0.846875
vt 0 0.65625
vt 0.03125 0.65625
vt 0.03125 0.6875
vt 0 0.6875
vt 0.24075625 1
vt 0.19674375 1
vt 0.21875 0.871875
vt 0.009374999999999994 0.7938031249999999
vt 0.040493749999999995 0.71875
vt 0.0625 0.846875
vt 0.28755312499999997 0.6875
vt 0.368803125 0.6875
vt 0.368803125 0.71875
vt 0.28755312499999997 0.71875
vt 0.19674375 1
vt 0.165625 0.9249468750000001
vt 0.21875 0.871875
vt 0.009374999999999994 0.8999468749999999
vt 0.009374999999999994 0.7938031249999999
vt 0.06249999999999999 0.846875
vt 0.368803125 0.6875
vt 0.474946875 0.6875
vt 0.474946875 0.71875
vt 0.368803125 0.71875
vt 0.165625 0.9249468750000001
vt 0.165625 0.8188031250000001
vt 0.21875 0.871875
vt 0.040493749999999995 0.975
vt 0.009374999999999994 0.8999468749999999
vt 0.0625 0.846875
vt 0.474946875 0.6875
vt 0.556196875 0.6875
vt 0.556196875 0.71875
vt 0.474946875 0.71875
vt 0.165625 0.8188031250000001
vt 0.19674375 0.74375
vt 0.21875 0.871875
vt 0.08450625 0.975
vt 0.040493749999999995 0.975
vt 0.0625 0.846875
vt 0.0625 0.65625
vt 0.09375 0.65625
vt 0.09375 0.6875
vt 0.0625 0.6875
vt 0.19674375 0.74375
vt 0.24075625 0.74375
vt 0.21875 0.871875
vn 0 -1 0
vn 0.9237421135716326 0 0.38301502270043325
vn 0 1 0
vn 0 -1 0
vn 1 0 0
vn 0 1 0
vn 0 -1 0
vn 0.9237421135716328 0 -0.38301502270043275
vn 0 1 0
vn 0 -1 0
vn 0 0 -1
vn 0 1 0
vn 0 -1 0
vn -0.9237421135716325 0 -0.38301502270043325
vn 0 1 0
vn 0 -1 0
vn -1 0 -2.61494193493554e-16
vn 0 1 0
vn 0 -1 0
vn -0.9237421135716327 0 0.38301502270043275
vn 0 1 0
vn 0 -1 0
vn 0 0 1
vn 0 1 0
usemtl m_0dbd3d1f-8564-48ee-2a4f-c4f6edfb7f8e
f 41/161/49 39/162/49 37/163/49
f 39/164/50 41/165/50 42/166/50 40/167/50
f 40/168/51 42/169/51 38/170/51
f 43/171/52 41/172/52 37/173/52
f 41/174/53 43/175/53 44/176/53 42/177/53
f 42/178/54 44/179/54 38/180/54
f 45/181/55 43/182/55 37/183/55
f 43/184/56 45/185/56 46/186/56 44/187/56
f 44/188/57 46/189/57 38/190/57
f 47/191/58 45/192/58 37/193/58
f 45/194/59 47/195/59 48/196/59 46/197/59
f 46/198/60 48/199/60 38/200/60
f 49/201/61 47/202/61 37/203/61
f 47/204/62 49/205/62 50/206/62 48/207/62
f 48/208/63 50/209/63 38/210/63
f 51/211/64 49/212/64 37/213/64
f 49/214/65 51/215/65 52/216/65 50/217/65
f 50/218/66 52/219/66 38/220/66
f 53/221/67 51/222/67 37/223/67
f 51/224/68 53/225/68 54/226/68 52/227/68
f 52/228/69 54/229/69 38/230/69
f 39/231/70 53/232/70 37/233/70
f 53/234/71 39/235/71 40/236/71 54/237/71
f 54/238/72 40/239/72 38/240/72
o cylinder
v 0.006250000000000033 -0.0375 0
v 0.006250000000000033 0.037500000000000006 0
v 0.12792523394709662 -0.0375 0.3125
v 0.12792523394709662 0.037500000000000006 0.3125
v 0.30000000000000004 -0.0375 0.12944173824159222
v 0.30000000000000004 0.037500000000000006 0.12944173824159222
v 0.30000000000000004 -0.0375 -0.12944173824159216
v 0.30000000000000004 0.037500000000000006 -0.12944173824159216
v 0.1279252339470967 -0.0375 -0.3125
v 0.1279252339470967 0.037500000000000006 -0.3125
v -0.11542523394709664 -0.0375 -0.3125
v -0.11542523394709664 0.037500000000000006 -0.3125
v -0.28749999999999987 -0.0375 -0.12944173824159244
v -0.28749999999999987 0.037500000000000006 -0.12944173824159244
v -0.2875 -0.0375 0.12944173824159227
v -0.2875 0.037500000000000006 0.12944173824159227
v -0.11542523394709686 -0.0375 0.31249999999999994
v -0.11542523394709686 0.037500000000000006 0.31249999999999994
vt 0.008472771642538526 0.9942454510102212
vt 0.005991271261056895 1
vt 0 0.9942454510102212
vt 0 0.9849624060150376
vt 0.006484931506849316 0.9849624060150376
vt 0.006484931506849316 1
vt 0 1
vt 0 0.9918616798696669
vt 0.005991037304427235 0.9942452262887217
vt 3.476236476321429e-18 1
vt 0.007827788649706457 0.9937710526315789
vt 0.007827788649706457 1
vt 0 0.9968855263157895
vt 0 0.9849624060150376
vt 0.006484931506849316 0.9849624060150376
vt 0.006484931506849316 1
vt 0 1
vt 0.007827788649706457 0.9937710526315789
vt 0.007827788649706457 1
vt 0 0.9968855263157895
vt 0 0.9918616798696669
vt 0.005991037304427235 0.9942452262887217
vt 3.476236476321429e-18 1
vt 0 0.9849624060150376
vt 0.006484931506849316 0.9849624060150376
vt 0.006484931506849316 1
vt 0 1
vt 0.008472771642538526 0.9942454510102212
vt 0.005991271261056895 1
vt 0 0.9942454510102212
vt 0 0.9924812030075187
vt 0.006484931506849316 0.9924812030075187
vt 0.003242465753424658 1
vt 0 0.9849624060150376
vt 0.006484931506849316 0.9849624060150376
vt 0.006484931506849316 1
vt 0 1
vt 0.006484931506849316 1
vt 0 1
vt 0.003242465753424658 0.9924812030075187
vt 0 1
vt 0.0024815003814816355 0.9942454510102212
vt 0.008472771642538525 1
vt 0 0.9849624060150376
vt 0.006484931506849316 0.9849624060150376
vt 0.006484931506849316 1
vt 0 1
vt 0.0059910373044272346 1
vt 0 0.9976164535809453
vt 0.005991037304427235 0.9918616798696669
vt 0 1
vt 0 0.9937710526315789
vt 0.007827788649706457 0.9968855263157895
vt 0 0.9849624060150376
vt 0.006484931506849316 0.9849624060150376
vt 0.006484931506849316 1
vt 0 1
vt 0 1
vt 0 0.9937710526315789
vt 0.007827788649706457 0.9968855263157895
vt 0.0059910373044272346 1
vt 0 0.9976164535809453
vt 0.005991037304427235 0.9918616798696669
vt 0 0.9849624060150376
vt 0.006484931506849316 0.9849624060150376
vt 0.006484931506849316 1
vt 0 1
vt 0 1
vt 0.0024815003814816355 0.9942454510102212
vt 0.008472771642538525 1
vt 0.006484931506849316 1
vt 0 1
vt 0.003242465753424658 0.9924812030075187
vt 0 0.9849624060150376
vt 0.006484931506849316 0.9849624060150376
vt 0.006484931506849316 1
vt 0 1
vt 0 0.9924812030075187
vt 0.006484931506849316 0.9924812030075187
vt 0.003242465753424658 1
vn 0 -1 0
vn 0.7286276689020071 0 0.6849100087678871
vn 0 1 0
vn 0 -1 0
vn 1 0 0
vn 0 1 0
vn 0 -1 0
vn 0.7286276689020075 0 -0.6849100087678868
vn 0 1 0
vn 0 -1 0
vn 0 0 -1
vn 0 1 0
vn 0 -1 0
vn -0.728627668902007 0 -0.6849100087678872
vn 0 1 0
vn 0 -1 0
vn -1 0 -4.2885047732942857e-16
vn 0 1 0
vn 0 -1 0
vn -0.7286276689020075 0 0.6849100087678868
vn 0 1 0
vn 0 -1 0
vn -2.2811195602629193e-16 0 1
vn 0 1 0
usemtl m_3672095b-dda8-3597-5549-6b20843bd44d
f 59/241/73 57/242/73 55/243/73
f 57/244/74 59/245/74 60/246/74 58/247/74
f 58/248/75 60/249/75 56/250/75
f 61/251/76 59/252/76 55/253/76
f 59/254/77 61/255/77 62/256/77 60/257/77
f 60/258/78 62/259/78 56/260/78
f 63/261/79 61/262/79 55/263/79
f 61/264/80 63/265/80 64/266/80 62/267/80
f 62/268/81 64/269/81 56/270/81
f 65/271/82 63/272/82 55/273/82
f 63/274/83 65/275/83 66/276/83 64/277/83
f 64/278/84 66/279/84 56/280/84
f 67/281/85 65/282/85 55/283/85
f 65/284/86 67/285/86 68/286/86 66/287/86
f 66/288/87 68/289/87 56/290/87
f 69/291/88 67/292/88 55/293/88
f 67/294/89 69/295/89 70/296/89 68/297/89
f 68/298/90 70/299/90 56/300/90
f 71/301/91 69/302/91 55/303/91
f 69/304/92 71/305/92 72/306/92 70/307/92
f 70/308/93 72/309/93 56/310/93
f 57/311/94 71/312/94 55/313/94
f 71/314/95 57/315/95 58/316/95 72/317/95
f 72/318/96 58/319/96 56/320/96
o cylinder
v 0.0062500000000000056 3.71875 -0.34375
v 0.0062500000000000056 3.78125 -0.34375
v 0.05026019100214135 3.71875 -0.08750000000000002
v 0.05026019100214135 3.78125 -0.08750000000000002
v 0.11250000000000002 3.71875 -0.23760777464189436
v 0.11250000000000002 3.78125 -0.23760777464189436
v 0.11250000000000002 3.71875 -0.44989222535810547
v 0.11250000000000002 3.78125 -0.44989222535810547
v 0.05026019100214138 3.71875 -0.6
v 0.05026019100214138 3.78125 -0.6
v -0.03776019100214134 3.71875 -0.6
v -0.03776019100214134 3.78125 -0.6
v -0.09999999999999995 3.71875 -0.4498922253581058
v -0.09999999999999995 3.78125 -0.4498922253581058
v -0.1 3.71875 -0.23760777464189436
v -0.1 3.78125 -0.23760777464189436
v -0.037760191002141424 3.71875 -0.08750000000000002
v -0.037760191002141424 3.78125 -0.08750000000000002
vt 0.115625 0.8999468749999999
vt 0.08450625 0.975
vt 0.0625 0.846875
vt 0.318803125 0.96875
vt 0.400053125 0.96875
vt 0.400053125 1
vt 0.318803125 1
vt 0.24075625 0.74375
vt 0.271875 0.8188031250000001
vt 0.21875 0.871875
vt 0.115625 0.7938031249999999
vt 0.115625 0.8999468749999999
vt 0.0625 0.846875
vt 0.400053125 0.96875
vt 0.506196875 0.96875
vt 0.506196875 1
vt 0.400053125 1
vt 0.271875 0.8188031250000001
vt 0.271875 0.9249468750000001
vt 0.21875 0.871875
vt 0.08450625 0.71875
vt 0.115625 0.7938031249999999
vt 0.0625 0.846875
vt 0.506196875 0.96875
vt 0.5874468749999999 0.96875
vt 0.5874468749999999 1
vt 0.506196875 1
vt 0.271875 0.9249468750000001
vt 0.24075625 1
vt 0.21875 0.871875
vt 0.040493749999999995 0.71875
vt 0.08450625 0.71875
vt 0.0625 0.846875
vt 0 0.65625
vt 0.03125 0.65625
vt 0.03125 0.6875
vt 0 0.6875
vt 0.24075625 1
vt 0.19674375 1
vt 0.21875 0.871875
vt 0.009374999999999994 0.7938031249999999
vt 0.040493749999999995 0.71875
vt 0.0625 0.846875
vt 0.28755312499999997 0.6875
vt 0.368803125 0.6875
vt 0.368803125 0.71875
vt 0.28755312499999997 0.71875
vt 0.19674375 1
vt 0.165625 0.9249468750000001
vt 0.21875 0.871875
vt 0.009374999999999994 0.8999468749999999
vt 0.009374999999999994 0.7938031249999999
vt 0.06249999999999999 0.846875
vt 0.368803125 0.6875
vt 0.474946875 0.6875
vt 0.474946875 0.71875
vt 0.368803125 0.71875
vt 0.165625 0.9249468750000001
vt 0.165625 0.8188031250000001
vt 0.21875 0.871875
vt 0.040493749999999995 0.975
vt 0.009374999999999994 0.8999468749999999
vt 0.0625 0.846875
vt 0.474946875 0.6875
vt 0.556196875 0.6875
vt 0.556196875 0.71875
vt 0.474946875 0.71875
vt 0.165625 0.8188031250000001
vt 0.19674375 0.74375
vt 0.21875 0.871875
vt 0.08450625 0.975
vt 0.040493749999999995 0.975
vt 0.0625 0.846875
vt 0.0625 0.65625
vt 0.09375 0.65625
vt 0.09375 0.6875
vt 0.0625 0.6875
vt 0.19674375 0.74375
vt 0.24075625 0.74375
vt 0.21875 0.871875
vn 0 -1 0
vn 0.9237421135716326 0 0.38301502270043325
vn 0 1 0
vn 0 -1 0
vn 1 0 0
vn 0 1 0
vn 0 -1 0
vn 0.9237421135716328 0 -0.38301502270043275
vn 0 1 0
vn 0 -1 0
vn 0 0 -1
vn 0 1 0
vn 0 -1 0
vn -0.9237421135716325 0 -0.38301502270043325
vn 0 1 0
vn 0 -1 0
vn -1 0 -2.61494193493554e-16
vn 0 1 0
vn 0 -1 0
vn -0.9237421135716327 0 0.38301502270043275
vn 0 1 0
vn 0 -1 0
vn 0 0 1
vn 0 1 0
usemtl m_aeb45e53-b92d-aa52-37f1-22b543529655
f 77/321/97 75/322/97 73/323/97
f 75/324/98 77/325/98 78/326/98 76/327/98
f 76/328/99 78/329/99 74/330/99
f 79/331/100 77/332/100 73/333/100
f 77/334/101 79/335/101 80/336/101 78/337/101
f 78/338/102 80/339/102 74/340/102
f 81/341/103 79/342/103 73/343/103
f 79/344/104 81/345/104 82/346/104 80/347/104
f 80/348/105 82/349/105 74/350/105
f 83/351/106 81/352/106 73/353/106
f 81/354/107 83/355/107 84/356/107 82/357/107
f 82/358/108 84/359/108 74/360/108
f 85/361/109 83/362/109 73/363/109
f 83/364/110 85/365/110 86/366/110 84/367/110
f 84/368/111 86/369/111 74/370/111
f 87/371/112 85/372/112 73/373/112
f 85/374/113 87/375/113 88/376/113 86/377/113
f 86/378/114 88/379/114 74/380/114
f 89/381/115 87/382/115 73/383/115
f 87/384/116 89/385/116 90/386/116 88/387/116
f 88/388/117 90/389/117 74/390/117
f 75/391/118 89/392/118 73/393/118
f 89/394/119 75/395/119 76/396/119 90/397/119
f 90/398/120 76/399/120 74/400/120