# Blender 4.2.0
# www.blender.org
mtllib ladder.mtl
o Cube.002
v 0.095950 0.886057 -1.413259
v 0.095950 0.886057 -1.796583
v 0.095950 0.660208 -1.413259
v 0.095950 0.660209 -1.796583
v -0.078005 0.886057 -1.413259
v -0.078005 0.886057 -1.796583
v -0.078005 0.660208 -1.413259
v -0.078005 0.660209 -1.796583
v 0.095950 0.660208 1.808088
v -0.078005 0.660208 1.808088
v 0.095950 0.886057 1.808088
v -0.078005 0.886057 1.808088
v 0.000000 0.660208 1.808088
v 0.095950 0.851870 1.808088
v -0.078005 0.851870 1.808088
v 0.000000 0.886057 1.808088
v 0.000000 0.851870 1.808088
v 0.207482 0.207482 -2.207482
v 0.207482 -0.207482 -2.207482
v 0.207482 0.207482 -1.792518
v 0.207482 -0.207482 -1.792518
v -0.207482 0.207482 -2.207482
v -0.207482 -0.207482 -2.207482
v -0.207482 0.207482 -1.792518
v -0.207482 -0.207482 -1.792518
v 0.207482 13.608358 -1.792518
v -0.207482 13.608358 -1.792518
v 0.207482 13.608358 -2.207482
v -0.207482 13.608358 -2.207482
v 0.000000 13.608358 -1.792518
v 0.207482 13.608358 -2.000000
v -0.207482 13.608358 -2.000000
v 0.000000 13.608358 -2.207482
v 0.000000 13.608358 -2.000000
v 0.207482 0.207482 1.792518
v 0.207482 -0.207482 1.792518
v 0.207482 0.207482 2.207481
v 0.207482 -0.207482 2.207481
v -0.207482 0.207482 1.792518
v -0.207482 -0.207482 1.792518
v -0.207482 0.207482 2.207481
v -0.207482 -0.207482 2.207481
v 0.207482 13.608358 2.207482
v -0.207482 13.608358 2.207482
v 0.207482 13.608358 1.792518
v -0.207482 13.608358 1.792518
v 0.000000 13.608358 2.207482
v 0.207482 13.608358 2.000000
v -0.207482 13.608358 2.000000
v 0.000000 13.608358 1.792518
v 0.000000 13.608358 2.000000
v 0.095950 2.886057 -1.413259
v 0.095950 2.886057 -1.796584
v 0.095950 2.660209 -1.413259
v 0.095950 2.660209 -1.796584
v -0.078005 2.886057 -1.413259
v -0.078005 2.886057 -1.796584
v -0.078005 2.660209 -1.413259
v -0.078005 2.660209 -1.796584
v 0.095950 2.660208 1.808087
v -0.078005 2.660208 1.808087
v 0.095950 2.886057 1.808087
v -0.078005 2.886057 1.808087
v 0.000000 2.660208 1.808087
v 0.095950 2.851871 1.808087
v -0.078005 2.851871 1.808087
v 0.000000 2.886057 1.808087
v 0.000000 2.851871 1.808087
v 0.095950 6.886057 -1.413259
v 0.095950 6.886057 -1.796584
v 0.095950 6.660208 -1.413259
v 0.095950 6.660208 -1.796584
v -0.078005 6.886057 -1.413259
v -0.078005 6.886057 -1.796584
v -0.078005 6.660208 -1.413259
v -0.078005 6.660208 -1.796584
v 0.095950 6.660208 1.808087
v -0.078005 6.660208 1.808087
v 0.095950 6.886057 1.808087
v -0.078005 6.886057 1.808087
v 0.000000 6.660208 1.808087
v 0.095950 6.851871 1.808087
v -0.078005 6.851871 1.808087
v 0.000000 6.886057 1.808087
v 0.000000 6.851871 1.808087
v 0.095950 4.886057 -1.413259
v 0.095950 4.886057 -1.796584
v 0.095950 4.660209 -1.413259
v 0.095950 4.660209 -1.796584
v -0.078005 4.886057 -1.413259
v -0.078005 4.886057 -1.796584
v -0.078005 4.660209 -1.413259
v -0.078005 4.660209 -1.796584
v 0.095950 4.660208 1.808087
v -0.078005 4.660208 1.808087
v 0.095950 4.886057 1.808087
v -0.078005 4.886057 1.808087
v 0.000000 4.660208 1.808087
v 0.095950 4.851871 1.808087
v -0.078005 4.851871 1.808087
v 0.000000 4.886057 1.808087
v 0.000000 4.851871 1.808087
v 0.095950 12.886058 -1.413259
v 0.095950 12.886058 -1.796584
v 0.095950 12.660210 -1.413259
v 0.095950 12.660210 -1.796584
v -0.078005 12.886058 -1.413259
v -0.078005 12.886058 -1.796584
v -0.078005 12.660210 -1.413259
v -0.078005 12.660210 -1.796584
v 0.095950 12.660210 1.808087
v -0.078005 12.660210 1.808087
v 0.095950 12.886058 1.808087
v -0.078005 12.886058 1.808087
v 0.000000 12.660210 1.808087
v 0.095950 12.851871 1.808087
v -0.078005 12.851871 1.808087
v 0.000000 12.886058 1.808087
v 0.000000 12.851871 1.808087
v 0.095950 10.886058 -1.413259
v 0.095950 10.886058 -1.796584
v 0.095950 10.660210 -1.413259
v 0.095950 10.660210 -1.796584
v -0.078005 10.886058 -1.413259
v -0.078005 10.886058 -1.796584
v -0.078005 10.660210 -1.413259
v -0.078005 10.660210 -1.796584
v 0.095950 10.660210 1.808087
v -0.078005 10.660210 1.808087
v 0.095950 10.886058 1.808087
v -0.078005 10.886058 1.808087
v 0.000000 10.660210 1.808087
v 0.095950 10.851871 1.808087
v -0.078005 10.851871 1.808087
v 0.000000 10.886058 1.808087
v 0.000000 10.851871 1.808087
v 0.095950 8.886058 -1.413259
v 0.095950 8.886058 -1.796584
v 0.095950 8.660210 -1.413259
v 0.095950 8.660210 -1.796584
v -0.078005 8.886058 -1.413259
v -0.078005 8.886058 -1.796584
v -0.078005 8.660210 -1.413259
v -0.078005 8.660210 -1.796584
v 0.095950 8.660210 1.808087
v -0.078005 8.660210 1.808087
v 0.095950 8.886058 1.808087
v -0.078005 8.886058 1.808087
v 0.000000 8.660210 1.808087
v 0.095950 8.851871 1.808087
v -0.078005 8.851871 1.808087
v 0.000000 8.886058 1.808087
v 0.000000 8.851871 1.808087
vn -0.0000 -1.0000 -0.0000
vn -1.0000 -0.0000 -0.0000
vn -0.0000 -0.0000 -1.0000
vn 1.0000 -0.0000 -0.0000
vn -0.0000 1.0000 -0.0000
vn -0.0000 -0.0000 1.0000
vt 0.625000 1.000000
vt 0.625000 0.750000
vt 0.625000 0.875000
vt 0.375000 0.750000
vt 0.375000 1.000000
vt 0.375000 0.000000
vt 0.625000 0.000000
vt 0.625000 0.250000
vt 0.375000 0.250000
vt 0.125000 0.500000
vt 0.375000 0.500000
vt 0.125000 0.750000
vt 0.625000 0.500000
vt 0.750000 0.625000
vt 0.875000 0.625000
vt 0.875000 0.750000
vt 0.750000 0.750000
vt 0.625000 0.125000
vt 0.625000 0.625000
vt 0.625000 0.375000
vt 0.750000 0.500000
vt 0.875000 0.500000
s 0
usemtl Material.002
f 7/1/1 3/2/1 9/2/1 13/3/1 10/1/1
f 4/4/1 3/2/1 7/1/1 8/5/1
f 8/6/2 7/7/2 5/8/2 6/9/2
f 6/10/3 2/11/3 4/4/3 8/12/3
f 2/11/4 1/13/4 3/2/4 4/4/4
f 6/9/5 5/8/5 1/13/5 2/11/5
f 17/14/6 15/15/6 10/16/6 13/17/6
f 5/8/2 7/7/2 10/7/2 15/18/2 12/8/2
f 3/2/4 1/13/4 11/13/4 14/19/4 9/2/4
f 1/13/5 5/8/5 12/8/5 16/20/5 11/13/5
f 14/19/6 17/14/6 13/17/6 9/2/6
f 11/13/6 16/21/6 17/14/6 14/19/6
f 16/21/6 12/22/6 15/15/6 17/14/6
usemtl Material
f 24/1/6 20/2/6 26/2/6 30/3/6 27/1/6
f 21/4/6 20/2/6 24/1/6 25/5/6
f 25/6/2 24/7/2 22/8/2 23/9/2
f 23/10/1 19/11/1 21/4/1 25/12/1
f 19/11/4 18/13/4 20/2/4 21/4/4
f 23/9/3 22/8/3 18/13/3 19/11/3
f 34/14/5 32/15/5 27/16/5 30/17/5
f 22/8/2 24/7/2 27/7/2 32/18/2 29/8/2
f 20/2/4 18/13/4 28/13/4 31/19/4 26/2/4
f 18/13/3 22/8/3 29/8/3 33/20/3 28/13/3
f 31/19/5 34/14/5 30/17/5 26/2/5
f 28/13/5 33/21/5 34/14/5 31/19/5
f 33/21/5 29/22/5 32/15/5 34/14/5
usemtl Material.001
f 41/1/6 37/2/6 43/2/6 47/3/6 44/1/6
f 38/4/6 37/2/6 41/1/6 42/5/6
f 42/6/2 41/7/2 39/8/2 40/9/2
f 40/10/1 36/11/1 38/4/1 42/12/1
f 36/11/4 35/13/4 37/2/4 38/4/4
f 40/9/3 39/8/3 35/13/3 36/11/3
f 51/14/5 49/15/5 44/16/5 47/17/5
f 39/8/2 41/7/2 44/7/2 49/18/2 46/8/2
f 37/2/4 35/13/4 45/13/4 48/19/4 43/2/4
f 35/13/3 39/8/3 46/8/3 50/20/3 45/13/3
f 48/19/5 51/14/5 47/17/5 43/2/5
f 45/13/5 50/21/5 51/14/5 48/19/5
f 50/21/5 46/22/5 49/15/5 51/14/5
usemtl Material.004
f 58/1/1 54/2/1 60/2/1 64/3/1 61/1/1
f 55/4/1 54/2/1 58/1/1 59/5/1
f 59/6/2 58/7/2 56/8/2 57/9/2
f 57/10/3 53/11/3 55/4/3 59/12/3
f 53/11/4 52/13/4 54/2/4 55/4/4
f 57/9/5 56/8/5 52/13/5 53/11/5
f 68/14/6 66/15/6 61/16/6 64/17/6
f 56/8/2 58/7/2 61/7/2 66/18/2 63/8/2
f 54/2/4 52/13/4 62/13/4 65/19/4 60/2/4
f 52/13/5 56/8/5 63/8/5 67/20/5 62/13/5
f 65/19/6 68/14/6 64/17/6 60/2/6
f 62/13/6 67/21/6 68/14/6 65/19/6
f 67/21/6 63/22/6 66/15/6 68/14/6
usemtl Material.006
f 75/1/1 71/2/1 77/2/1 81/3/1 78/1/1
f 72/4/1 71/2/1 75/1/1 76/5/1
f 76/6/2 75/7/2 73/8/2 74/9/2
f 74/10/3 70/11/3 72/4/3 76/12/3
f 70/11/4 69/13/4 71/2/4 72/4/4
f 74/9/5 73/8/5 69/13/5 70/11/5
f 85/14/6 83/15/6 78/16/6 81/17/6
f 73/8/2 75/7/2 78/7/2 83/18/2 80/8/2
f 71/2/4 69/13/4 79/13/4 82/19/4 77/2/4
f 69/13/5 73/8/5 80/8/5 84/20/5 79/13/5
f 82/19/6 85/14/6 81/17/6 77/2/6
f 79/13/6 84/21/6 85/14/6 82/19/6
f 84/21/6 80/22/6 83/15/6 85/14/6
usemtl Material.007
f 92/1/1 88/2/1 94/2/1 98/3/1 95/1/1
f 89/4/1 88/2/1 92/1/1 93/5/1
f 93/6/2 92/7/2 90/8/2 91/9/2
f 91/10/3 87/11/3 89/4/3 93/12/3
f 87/11/4 86/13/4 88/2/4 89/4/4
f 91/9/5 90/8/5 86/13/5 87/11/5
f 102/14/6 100/15/6 95/16/6 98/17/6
f 90/8/2 92/7/2 95/7/2 100/18/2 97/8/2
f 88/2/4 86/13/4 96/13/4 99/19/4 94/2/4
f 86/13/5 90/8/5 97/8/5 101/20/5 96/13/5
f 99/19/6 102/14/6 98/17/6 94/2/6
f 96/13/6 101/21/6 102/14/6 99/19/6
f 101/21/6 97/22/6 100/15/6 102/14/6
usemtl Material.008
f 109/1/1 105/2/1 111/2/1 115/3/1 112/1/1
f 106/4/1 105/2/1 109/1/1 110/5/1
f 110/6/2 109/7/2 107/8/2 108/9/2
f 108/10/3 104/11/3 106/4/3 110/12/3
f 104/11/4 103/13/4 105/2/4 106/4/4
f 108/9/5 107/8/5 103/13/5 104/11/5
f 119/14/6 117/15/6 112/16/6 115/17/6
f 107/8/2 109/7/2 112/7/2 117/18/2 114/8/2
f 105/2/4 103/13/4 113/13/4 116/19/4 111/2/4
f 103/13/5 107/8/5 114/8/5 118/20/5 113/13/5
f 116/19/6 119/14/6 115/17/6 111/2/6
f 113/13/6 118/21/6 119/14/6 116/19/6
f 118/21/6 114/22/6 117/15/6 119/14/6
usemtl Material.009
f 126/1/1 122/2/1 128/2/1 132/3/1 129/1/1
f 123/4/1 122/2/1 126/1/1 127/5/1
f 127/6/2 126/7/2 124/8/2 125/9/2
f 125/10/3 121/11/3 123/4/3 127/12/3
f 121/11/4 120/13/4 122/2/4 123/4/4
f 125/9/5 124/8/5 120/13/5 121/11/5
f 136/14/6 134/15/6 129/16/6 132/17/6
f 124/8/2 126/7/2 129/7/2 134/18/2 131/8/2
f 122/2/4 120/13/4 130/13/4 133/19/4 128/2/4
f 120/13/5 124/8/5 131/8/5 135/20/5 130/13/5
f 133/19/6 136/14/6 132/17/6 128/2/6
f 130/13/6 135/21/6 136/14/6 133/19/6
f 135/21/6 131/22/6 134/15/6 136/14/6
usemtl Material.011
f 143/1/1 139/2/1 145/2/1 149/3/1 146/1/1
f 140/4/1 139/2/1 143/1/1 144/5/1
f 144/6/2 143/7/2 141/8/2 142/9/2
f 142/10/3 138/11/3 140/4/3 144/12/3
f 138/11/4 137/13/4 139/2/4 140/4/4
f 142/9/5 141/8/5 137/13/5 138/11/5
f 153/14/6 151/15/6 146/16/6 149/17/6
f 141/8/2 143/7/2 146/7/2 151/18/2 148/8/2
f 139/2/4 137/13/4 147/13/4 150/19/4 145/2/4
f 137/13/5 141/8/5 148/8/5 152/20/5 147/13/5
f 150/19/6 153/14/6 149/17/6 145/2/6
f 147/13/6 152/21/6 153/14/6 150/19/6
f 152/21/6 148/22/6 151/15/6 153/14/6
