# Made in Blockbench 4.12.5
mtllib bullet.mtl

o cylinder
v 6.938893903907228e-18 0.0625 -1.3877787807814457e-17
v 6.938893903907228e-18 0.5 -1.3877787807814457e-17
v 0.05177669529663689 0.0625 0.12499999999999997
v 0.05177669529663689 0.5 0.12499999999999997
v 0.125 0.0625 0.05177669529663688
v 0.125 0.5 0.05177669529663688
v 0.125 0.0625 -0.05177669529663689
v 0.125 0.5 -0.05177669529663689
v 0.05177669529663691 0.0625 -0.125
v 0.05177669529663691 0.5 -0.125
v -0.051776695296636865 0.0625 -0.12500000000000003
v -0.051776695296636865 0.5 -0.12500000000000003
v -0.12499999999999996 0.0625 -0.051776695296636976
v -0.12499999999999996 0.5 -0.051776695296636976
v -0.12499999999999999 0.0625 0.0517766952966369
v -0.12499999999999999 0.5 0.0517766952966369
v -0.05177669529663696 0.0625 0.12499999999999996
v -0.05177669529663696 0.5 0.12499999999999996
vt 0.34375 0.9633875
vt 0.3071375 1
vt 0.28125 0.9375
vt 0.46875 0.75
vt 0.53125 0.75
vt 0.53125 1
vt 0.46875 1
vt 0.3071375 0.71875
vt 0.34375 0.7553624999999999
vt 0.28125 0.78125
vt 0.34375 0.9116124999999999
vt 0.34375 0.9633875
vt 0.28125 0.9375
vt 0.21875 0.4375
vt 0.28125 0.4375
vt 0.28125 0.6875
vt 0.21875 0.6875
vt 0.34375 0.7553624999999999
vt 0.34375 0.8071375000000001
vt 0.28125 0.78125
vt 0.3071375 0.875
vt 0.34375 0.9116124999999999
vt 0.28125 0.9375
vt 0.09375 0.375
vt 0.15625 0.375
vt 0.15625 0.625
vt 0.09375 0.625
vt 0.34375 0.8071375000000001
vt 0.3071375 0.84375
vt 0.28125 0.78125
vt 0.2553625 0.875
vt 0.3071375 0.875
vt 0.28125 0.9375
vt 0.375 0.75
vt 0.4375 0.75
vt 0.4375 1
vt 0.375 1
vt 0.3071375 0.84375
vt 0.2553625 0.84375
vt 0.28125 0.78125
vt 0.21875 0.9116124999999999
vt 0.2553625 0.875
vt 0.28125 0.9375
vt 0.5 0.46875
vt 0.5625 0.46875
vt 0.5625 0.71875
vt 0.5 0.71875
vt 0.2553625 0.84375
vt 0.21875 0.8071375000000001
vt 0.28125 0.78125
vt 0.21875 0.9633875
vt 0.21875 0.9116124999999999
vt 0.28125 0.9375
vt 0 0.375
vt 0.0625 0.375
vt 0.0625 0.625
vt 0 0.625
vt 0.21875 0.8071375000000001
vt 0.21875 0.7553624999999999
vt 0.28125 0.78125
vt 0.2553625 1
vt 0.21875 0.9633875
vt 0.28125 0.9375
vt 0.40625 0.46875
vt 0.46875 0.46875
vt 0.46875 0.71875
vt 0.40625 0.71875
vt 0.21875 0.7553624999999999
vt 0.2553625 0.71875
vt 0.28125 0.78125
vt 0.3071375 1
vt 0.2553625 1
vt 0.28125 0.9375
vt 0.3125 0.4375
vt 0.375 0.4375
vt 0.375 0.6875
vt 0.3125 0.6875
vt 0.2553625 0.71875
vt 0.3071375 0.71875
vt 0.28125 0.78125
vn 0 -1 0
vn 0.7071067811865475 0 0.7071067811865476
vn 0 1 0
vn 0 -1 0
vn 1 0 0
vn 0 1 0
vn 0 -1 0
vn 0.7071067811865476 0 -0.7071067811865475
vn 0 1 0
vn 0 -1 0
vn 2.680315483308931e-16 0 -1
vn 0 1 0
vn 0 -1 0
vn -0.7071067811865474 0 -0.7071067811865477
vn 0 1 0
vn 0 -1 0
vn -1 0 -2.6803154833089285e-16
vn 0 1 0
vn 0 -1 0
vn -0.7071067811865477 0 0.7071067811865474
vn 0 1 0
vn 0 -1 0
vn -1.3401577416544645e-16 0 1
vn 0 1 0
usemtl m_463622e0-5168-2d0a-c8a4-d0fe19e79564
f 5/1/1 3/2/1 1/3/1
f 3/4/2 5/5/2 6/6/2 4/7/2
f 4/8/3 6/9/3 2/10/3
f 7/11/4 5/12/4 1/13/4
f 5/14/5 7/15/5 8/16/5 6/17/5
f 6/18/6 8/19/6 2/20/6
f 9/21/7 7/22/7 1/23/7
f 7/24/8 9/25/8 10/26/8 8/27/8
f 8/28/9 10/29/9 2/30/9
f 11/31/10 9/32/10 1/33/10
f 9/34/11 11/35/11 12/36/11 10/37/11
f 10/38/12 12/39/12 2/40/12
f 13/41/13 11/42/13 1/43/13
f 11/44/14 13/45/14 14/46/14 12/47/14
f 12/48/15 14/49/15 2/50/15
f 15/51/16 13/52/16 1/53/16
f 13/54/17 15/55/17 16/56/17 14/57/17
f 14/58/18 16/59/18 2/60/18
f 17/61/19 15/62/19 1/63/19
f 15/64/20 17/65/20 18/66/20 16/67/20
f 16/68/21 18/69/21 2/70/21
f 3/71/22 17/72/22 1/73/22
f 17/74/23 3/75/23 4/76/23 18/77/23
f 18/78/24 4/79/24 2/80/24
o cylinder
v 7.254298172266648e-18 0 -1.3183898417423733e-17
v 7.254298172266648e-18 0.0625 -1.3183898417423733e-17
v 0.05954319959113243 0 0.13124999999999998
v 0.05954319959113243 0.0625 0.13124999999999998
v 0.14375 0 0.05436553006146873
v 0.14375 0.0625 0.05436553006146873
v 0.14375 0 -0.05436553006146874
v 0.14375 0.0625 -0.05436553006146874
v 0.05954319959113244 0 -0.13125
v 0.05954319959113244 0.0625 -0.13125
v -0.05954319959113239 0 -0.13125000000000003
v -0.05954319959113239 0.0625 -0.13125000000000003
v -0.14374999999999996 0 -0.054365530061468825
v -0.14374999999999996 0.0625 -0.054365530061468825
v -0.14375 0 0.05436553006146875
v -0.14375 0.0625 0.05436553006146875
v -0.059543199591132516 0 0.13124999999999995
v -0.059543199591132516 0.0625 0.13124999999999995
vt 0.175 0.945396875
vt 0.12740625 0.9875
vt 0.09375 0.915625
vt 0.59375 0.71875
vt 0.65625 0.71875
vt 0.65625 0.75
vt 0.59375 0.75
vt 0.12740625 0.66875
vt 0.175 0.710853125
vt 0.09375 0.740625
vt 0.175 0.885853125
vt 0.175 0.945396875
vt 0.09375 0.915625
vt 0.5625 0.96875
vt 0.625 0.96875
vt 0.625 1
vt 0.5625 1
vt 0.175 0.710853125
vt 0.175 0.770396875
vt 0.09375 0.740625
vt 0.12740625 0.84375
vt 0.175 0.885853125
vt 0.09375 0.915625
vt 0.40625 0.40625
vt 0.46875 0.40625
vt 0.46875 0.4375
vt 0.40625 0.4375
vt 0.175 0.770396875
vt 0.12740625 0.8125
vt 0.09375 0.740625
vt 0.06009375 0.84375
vt 0.12740625 0.84375
vt 0.09375 0.915625
vt 0.5625 0.78125
vt 0.625 0.78125
vt 0.625 0.8125
vt 0.5625 0.8125
vt 0.12740625 0.8125
vt 0.06009375 0.8125
vt 0.09375 0.740625
vt 0.012499999999999997 0.885853125
vt 0.06009375 0.84375
vt 0.09375 0.915625
vt 0.1875 0.375
vt 0.25 0.375
vt 0.25 0.40625
vt 0.1875 0.40625
vt 0.06009375 0.8125
vt 0.012499999999999997 0.770396875
vt 0.09375 0.740625
vt 0.012499999999999997 0.945396875
vt 0.012499999999999997 0.885853125
vt 0.09375 0.915625
vt 0.5625 0.90625
vt 0.625 0.90625
vt 0.625 0.9375
vt 0.5625 0.9375
vt 0.012499999999999997 0.770396875
vt 0.012499999999999997 0.710853125
vt 0.09375 0.740625
vt 0.06009375 0.9875
vt 0.012499999999999997 0.945396875
vt 0.09375 0.915625
vt 0.5 0.40625
vt 0.5625 0.40625
vt 0.5625 0.4375
vt 0.5 0.4375
vt 0.012499999999999997 0.710853125
vt 0.06009375 0.66875
vt 0.09375 0.740625
vt 0.12740625 0.9875
vt 0.06009375 0.9875
vt 0.09375 0.915625
vt 0.5625 0.84375
vt 0.625 0.84375
vt 0.625 0.875
vt 0.5625 0.875
vt 0.06009375 0.66875
vt 0.12740625 0.66875
vt 0.09375 0.740625
vn 0 -1 0
vn 0.6742693640213324 0 0.7384854939281258
vn 0 1 0
vn 0 -1 0
vn 1 0 0
vn 0 1 0
vn 0 -1 0
vn 0.6742693640213324 0 -0.7384854939281258
vn 0 1 0
vn 0 -1 0
vn 2.33070911592081e-16 0 -1
vn 0 1 0
vn 0 -1 0
vn -0.6742693640213321 0 -0.7384854939281261
vn 0 1 0
vn 0 -1 0
vn -1 0 -2.5526814126751704e-16
vn 0 1 0
vn 0 -1 0
vn -0.6742693640213325 0 0.7384854939281258
vn 0 1 0
vn 0 -1 0
vn -2.3307091159208075e-16 0 1
vn 0 1 0
usemtl m_463622e0-5168-2d0a-c8a4-d0fe19e79564
f 23/81/25 21/82/25 19/83/25
f 21/84/26 23/85/26 24/86/26 22/87/26
f 22/88/27 24/89/27 20/90/27
f 25/91/28 23/92/28 19/93/28
f 23/94/29 25/95/29 26/96/29 24/97/29
f 24/98/30 26/99/30 20/100/30
f 27/101/31 25/102/31 19/103/31
f 25/104/32 27/105/32 28/106/32 26/107/32
f 26/108/33 28/109/33 20/110/33
f 29/111/34 27/112/34 19/113/34
f 27/114/35 29/115/35 30/116/35 28/117/35
f 28/118/36 30/119/36 20/120/36
f 31/121/37 29/122/37 19/123/37
f 29/124/38 31/125/38 32/126/38 30/127/38
f 30/128/39 32/129/39 20/130/39
f 33/131/40 31/132/40 19/133/40
f 31/134/41 33/135/41 34/136/41 32/137/41
f 32/138/42 34/139/42 20/140/42
f 35/141/43 33/142/43 19/143/43
f 33/144/44 35/145/44 36/146/44 34/147/44
f 34/148/45 36/149/45 20/150/45
f 21/151/46 35/152/46 19/153/46
f 35/154/47 21/155/47 22/156/47 36/157/47
f 36/158/48 22/159/48 20/160/48
o sphere
v 6.938893903907228e-18 0.75 -1.3877787807814457e-17
v 0.03661165235168157 0.6767766952966369 0.08838834764831842
v 0.05177669529663689 0.5 0.12499999999999997
v 0.08838834764831845 0.6767766952966369 0.03661165235168155
v 0.125 0.5 0.05177669529663687
v 0.08838834764831845 0.6767766952966369 -0.03661165235168157
v 0.125 0.5 -0.05177669529663689
v 0.03661165235168158 0.6767766952966369 -0.08838834764831846
v 0.05177669529663691 0.5 -0.125
v -0.036611652351681546 0.6767766952966369 -0.08838834764831846
v -0.051776695296636865 0.5 -0.12500000000000003
v -0.08838834764831842 0.6767766952966369 -0.03661165235168163
v -0.12499999999999996 0.5 -0.051776695296636976
v -0.08838834764831842 0.6767766952966369 0.03661165235168157
v -0.12499999999999999 0.5 0.0517766952966369
v -0.036611652351681616 0.6767766952966369 0.0883883476483184
v -0.05177669529663696 0.5 0.12499999999999994
vt 0.5366124999999999 0.44771874999999994
vt 0.596312888246891 0.49011880033216926
vt 0.5 0.5625
vt 0.40521859860321474 1
vt 0.375 0.8213774557069915
vt 0.5 0.8127106896486536
vt 0.5 0.9938713283957336
vt 0.027619021024384592 0.21427332475023286
vt 0.0973809789756154 0.19202091257063536
vt 0.09738097897561537 0.3125
vt 0.030218598603214734 0.75
vt 0 0.5713774557069915
vt 0.125 0.5627106896486536
vt 0.125 0.7438713283957336
vt 0.403687111753109 0.6776188003321693
vt 0.4633875 0.6352187499999999
vt 0.5 0.75
vt 0.7436606387470799 1
vt 0.5625 1
vt 0.5711667660583379 0.8968133261215865
vt 0.7497893103513464 0.9270319247248013
vt 0.4633875 0.6352187499999999
vt 0.5366124999999999 0.6352187499999999
vt 0.5 0.75
vt 0.030218598603214734 1
vt 0 0.8213774557069915
vt 0.125 0.8127106896486536
vt 0.125 0.9938713283957336
vt 0.5366124999999999 0.6352187499999999
vt 0.596312888246891 0.6776188003321693
vt 0.5 0.75
vt 0.4313713283957335 0.375
vt 0.25021068964865356 0.375
vt 0.2588774557069915 0.2718133261215865
vt 0.4375 0.30203192472480134
vt 0.5022604562853177 0.375
vt 0.5245128684649153 0.30523804204876914
vt 0.6227395437146823 0.375
vt 0.21771859860321474 0.75
vt 0.1875 0.5713774557069915
vt 0.3125 0.5627106896486536
vt 0.3125 0.7438713283957336
vt 0.403687111753109 0.49011880033216926
vt 0.4633875 0.44771874999999994
vt 0.5 0.5625
vt 0.18116063874707994 0.5
vt 0 0.5
vt 0.008666766058337938 0.3968133261215865
vt 0.18728931035134644 0.42703192472480134
vt 0.4633875 0.44771874999999994
vt 0.5366124999999999 0.44771874999999994
vt 0.5 0.5625
vt 0.21771859860321474 1
vt 0.1875 0.8213774557069915
vt 0.3125 0.8127106896486536
vt 0.3125 0.9938713283957336
vn 0.4511001660036033 0.7700761523791287 0.4511001660036035
vn 0.6924127883710801 0.20280301033360354 0.6924127883710801
vn 0.6379519727510505 0.7700761523791287 0
vn 0.9792195560749531 0.2028030103336035 0
vn 0.4511001660036035 0.7700761523791287 -0.4511001660036032
vn 0.6924127883710801 0.20280301033360354 -0.69241278837108
vn 0 0.7700761523791287 -0.6379519727510504
vn 2.3198558968901457e-16 0.20280301033360346 -0.9792195560749531
vn -0.45110016600360314 0.7700761523791287 -0.45110016600360353
vn -0.6924127883710799 0.20280301033360365 -0.6924127883710803
vn -0.6379519727510505 0.7700761523791289 0
vn -0.9792195560749531 0.20280301033360348 -2.319855896890143e-16
vn -0.45110016600360336 0.7700761523791287 0.4511001660036031
vn -0.6924127883710802 0.20280301033360365 0.69241278837108
vn -1.2090907594626865e-16 0.7700761523791289 0.6379519727510505
vn -2.3198558968901437e-16 0.20280301033360348 0.9792195560749531
usemtl m_6bf44dbd-b377-fa62-4f21-e8aff33ce68c
f 38/161/49 40/162/49 37/163/49
f 38/164/50 39/165/50 41/166/50 40/167/50
f 40/168/51 42/169/51 37/170/51
f 40/171/52 41/172/52 43/173/52 42/174/52
f 42/175/53 44/176/53 37/177/53
f 42/178/54 43/179/54 45/180/54 44/181/54
f 44/182/55 46/183/55 37/184/55
f 44/185/56 45/186/56 47/187/56 46/188/56
f 46/189/57 48/190/57 37/191/57
f 46/192/58 47/193/58 49/194/58 48/195/58
f 48/196/59 50/197/59 37/198/59
f 48/199/60 49/200/60 51/201/60 50/202/60
f 50/203/61 52/204/61 37/205/61
f 50/206/62 51/207/62 53/208/62 52/209/62
f 52/210/63 38/211/63 37/212/63
f 52/213/64 53/214/64 39/215/64 38/216/64