# Made in Blockbench 4.12.5
mtllib glock.mtl

o cylinder
v 0.4375 0.8692076209988263 5.620504062164854e-17
v 0.4375 0.9104394244119952 0.08125000000000013
v -0.438314930684526 0.9093912309935841 0.08125000000000022
v 0.4375 0.96875 0.03365485194281406
v 0.4375 0.96875 -0.033654851942813944
v 0.4375 0.9104394244119952 -0.08125000000000002
v -0.438314930684526 0.9093912309935841 -0.08125000000000011
v -0.45403963693378147 0.8635758587397631 0.08125000000000021
v 0.4167649114412873 0.870779561728727 0.08125000000000018
v -0.4530380153784672 0.8664941749033053 -0.08125000000000011
v 0.4375 0.8691900467148348 -0.08125000000000002
v 0.4375 0.870584455014056 0.08125000000000011
v -0.4192303370029826 0.9687500000000001 -0.033654851942813944
v -0.4184688918973839 0.9687500000000001 0.03365485194281406
v -0.42219807445254176 0.9595194528539828 -0.04105610478914649
v -0.42171064454578333 0.9590540375615438 0.041429284862158515
vt 0.73728125 0.67740625
vt 0.67896875 0.725
vt 0.6377375 0.64375
vt 0.73728125 0.61009375
vt 0.73728125 0.67740625
vt 0.6377375 0.64375
vt 0.67896875 0.5625
vt 0.73728125 0.61009375
vt 0.6377375 0.64375
vt 0.549875 1
vt 0.510625 1
vt 0.510625 0.125
vt 0.63771875 0.5625
vt 0.67896875 0.5625
vt 0.6377375 0.64375
vt 0.549875 1
vt 0.510625 0.125
vt 0.551875 0.125
vt 0.387359375 0.125
vt 0.427209375 0.125
vt 0.387553125 0.14573749999999996
vt 0.67896875 0.725
vt 0.63911875 0.725
vt 0.6377375 0.64375
vt 0.387553125 0.14573749999999996
vt 0.427209375 0.125
vt 0.427209375 1
vt 0.385290625 1
vt 0 0.980968891897384
vt 0 0.125
vt 0.0625 0.125
vt 0.0625 0.9817303370029826
vt 0.13482387482807254 0.9846980744525418
vt 0.125 0.9817303370029826
vt 0.125 0.125
vt 0.1875 0.125
vt 0.1875 0.125
vt 0.1875 1
vt 0.13482387482807254 0.9846980744525418
vt 0.25 0.125
vt 0.3125 0.125
vt 0.3125 0.9809688918973838
vt 0.3021807935839225 0.9842106445457831
vt 0.3021807935839225 0.9842106445457831
vt 0.25 1
vt 0.25 0.125
vt 0 1
vt 0 1
vt 0 1
vt 0 1
vt 0 1
vt 0 1
vt 0 1
vt 0 1
vt 0 1
vt 0 1
vt 0 1
vt 0 1
vt 0 1
vt 0 1
vn 1 -2.220446049250313e-16 0
vn 1 -2.220446049250313e-16 0
vn 1 -2.220446049250313e-16 0
vn 1.1096457922259895e-16 -3.808515191540402e-17 -1
vn 1 -2.220446049250313e-16 0
vn 1.0908519678793951e-16 -2.4221779423947324e-32 -1
vn 3.3431736390941135e-15 -3.4820721273799485e-16 1
vn 1 -2.220446049250313e-16 0
vn 1.0931223055205217e-16 1.3425299244082728e-15 1
vn 2.220446049250313e-16 1 0
vn 1.3890250448290108e-16 0.6255612674300219 -0.7801750449042475
vn -0.0007488598293554518 0.6257076299273406 -0.7800573062664474
vn 1.404063664359664e-16 0.6323340595614636 0.7746958352272971
vn -0.0007488668278761042 0.6257134775207059 0.780052615691672
vn -0.9458408935230608 0.3246305656272964 -2.5009005803930846e-15
vn -0.12326671027227329 -0.5855168737932975 -0.8012336167697756
vn -0.9520052463065471 0.3060817064197245 2.1401359351517616e-17
vn -0.9520052463065474 0.3060817064197243 2.534217849792951e-17
usemtl m_56a0f9f7-99ff-fecb-6d8b-0dcf5cb79f9c
f 4/1/1 2/2/1 1/3/1
f 5/4/2 4/5/2 1/6/2
f 6/7/3 5/8/3 1/9/3
f 10/10/4 7/11/4 6/12/4
f 11/13/5 6/14/5 1/15/5
f 10/16/6 6/17/6 11/18/6
f 12/19/7 2/20/7 9/21/7
f 2/22/8 12/23/8 1/24/8
f 9/25/9 2/26/9 3/27/9 8/28/9
f 14/29/10 4/30/10 5/31/10 13/32/10
f 15/33/11 13/34/11 5/35/11 6/36/11
f 6/37/12 7/38/12 15/39/12
f 2/40/13 4/41/13 14/42/13 16/43/13
f 16/44/14 3/45/14 2/46/14
f 7/47/15 10/48/15 8/49/15 3/50/15
f 3/51/16 16/52/16 14/53/16 13/54/16
f 13/55/17 7/56/17 3/57/17
f 15/58/18 7/59/18 3/60/18
o cube
v 0.4437500000000001 0.875 0.08124999999999999
v 0.4437500000000001 0.875 -0.08124999999999999
v 0.4437500000000001 0.8374999999999999 0.08124999999999999
v 0.4437500000000001 0.8374999999999999 -0.08124999999999999
v 0.32500000000000007 0.875 -0.08124999999999999
v 0.32500000000000007 0.875 0.08124999999999999
v 0.32500000000000007 0.8374999999999999 -0.08124999999999999
v 0.32500000000000007 0.8374999999999999 0.08124999999999999
vt 0.21875 0.59375
vt 0.28125 0.59375
vt 0.28125 0.5625
vt 0.21875 0.5625
vt 0.375 0.96875
vt 0.46875 0.96875
vt 0.46875 0.9375
vt 0.375 0.9375
vt 0.28125 0.59375
vt 0.34375 0.59375
vt 0.34375 0.5625
vt 0.28125 0.5625
vt 0.375 0.9375
vt 0.46875 0.9375
vt 0.46875 0.90625
vt 0.375 0.90625
vt 0.375 0.875
vt 0.3125 0.875
vt 0.3125 0.96875
vt 0.375 0.96875
vt 0.28125 0.6875
vt 0.21875 0.6875
vt 0.21875 0.59375
vt 0.28125 0.59375
vn 0 0 -1
vn 1 0 0
vn 0 0 1
vn -1 0 0
vn 0 1 0
vn 0 -1 0
usemtl m_4e9afe19-5d7a-f196-49e5-b7d21fc7d893
f 20/64/19 23/63/19 21/62/19 18/61/19
f 19/68/20 20/67/20 18/66/20 17/65/20
f 24/72/21 19/71/21 17/70/21 22/69/21
f 23/76/22 24/75/22 22/74/22 21/73/22
f 22/80/23 17/79/23 18/78/23 21/77/23
f 23/84/24 20/83/24 19/82/24 24/81/24
o cube
v -0.16250000000000003 0.8250000000000001 0.04375
v -0.16250000000000003 0.8250000000000001 -0.018750000000000003
v -0.16250000000000003 0.7312500000000001 0.04375
v -0.16250000000000003 0.7312500000000001 -0.018750000000000003
v -0.1875 0.8250000000000001 -0.018750000000000003
v -0.1875 0.8250000000000001 0.04375
v -0.1875 0.7312500000000001 -0.018750000000000003
v -0.1875 0.7312500000000001 0.04375
vt 0.40625 0.6875
vt 0.4375 0.6875
vt 0.4375 0.625
vt 0.40625 0.625
vt 0.34375 0.59375
vt 0.375 0.59375
vt 0.375 0.53125
vt 0.34375 0.53125
vt 0.375 0.59375
vt 0.40625 0.59375
vt 0.40625 0.53125
vt 0.375 0.53125
vt 0.40625 0.625
vt 0.4375 0.625
vt 0.4375 0.5625
vt 0.40625 0.5625
vt 0.34375 0.53125
vt 0.3125 0.53125
vt 0.3125 0.5625
vt 0.34375 0.5625
vt 0.46875 0.65625
vt 0.4375 0.65625
vt 0.4375 0.625
vt 0.46875 0.625
vn 0 0 -1
vn 1 0 0
vn 0 0 1
vn -1 0 0
vn 0 1 0
vn 0 -1 0
usemtl m_4e9afe19-5d7a-f196-49e5-b7d21fc7d893
f 28/88/25 31/87/25 29/86/25 26/85/25
f 27/92/26 28/91/26 26/90/26 25/89/26
f 32/96/27 27/95/27 25/94/27 30/93/27
f 31/100/28 32/99/28 30/98/28 29/97/28
f 30/104/29 25/103/29 26/102/29 29/101/29
f 31/108/30 28/107/30 27/106/30 32/105/30
o cube
v 0.32500000000000007 0.875 0.0875
v 0.32500000000000007 0.875 -0.0875
v 0.32500000000000007 0.825 0.0875
v 0.32500000000000007 0.825 -0.0875
v -0.024999999999999967 0.875 -0.0875
v -0.024999999999999967 0.875 0.0875
v -0.024999999999999967 0.825 -0.0875
v -0.024999999999999967 0.825 0.0875
vt 0.3125 0.875
vt 0.5 0.875
vt 0.5 0.84375
vt 0.3125 0.84375
vt 0.375 0.90625
vt 0.46875 0.90625
vt 0.46875 0.875
vt 0.375 0.875
vt 0.3125 0.84375
vt 0.5 0.84375
vt 0.5 0.8125
vt 0.3125 0.8125
vt 0.375 0.8125
vt 0.46875 0.8125
vt 0.46875 0.78125
vt 0.375 0.78125
vt 0.1875 0.71875
vt 0 0.71875
vt 0 0.8125
vt 0.1875 0.8125
vt 0.375 0.8125
vt 0.1875 0.8125
vt 0.1875 0.71875
vt 0.375 0.71875
vn 0 0 -1
vn 1 0 0
vn 0 0 1
vn -1 0 0
vn 0 1 0
vn 0 -1 0
usemtl m_4e9afe19-5d7a-f196-49e5-b7d21fc7d893
f 36/112/31 39/111/31 37/110/31 34/109/31
f 35/116/32 36/115/32 34/114/32 33/113/32
f 40/120/33 35/119/33 33/118/33 38/117/33
f 39/124/34 40/123/34 38/122/34 37/121/34
f 38/128/35 33/127/35 34/126/35 37/125/35
f 39/132/36 36/131/36 35/130/36 40/129/36
o cube
v -0.02499999999999991 0.825 0.09999999999999998
v -0.02499999999999991 0.825 -0.1
v -0.02499999999999991 0.825 0.09999999999999998
v -0.02499999999999991 0.825 -0.1
v -0.4437500000000001 0.825 -0.1
v -0.4437500000000001 0.825 0.09999999999999998
v -0.4437500000000001 0.825 -0.1
v -0.4437500000000001 0.825 0.09999999999999998
vt 0 0.7999999999999994
vt 1.6750000000000007 0.7999999999999994
vt 1.6750000000000007 0.7999999999999998
vt 0 0.7999999999999998
vt 0 0.7999999999999994
vt 0.7999999999999999 0.7999999999999994
vt 0.7999999999999999 0.7999999999999998
vt 0 0.7999999999999998
vt 0 0.7999999999999994
vt 1.6750000000000007 0.7999999999999994
vt 1.6750000000000007 0.7999999999999998
vt 0 0.7999999999999998
vt 0 0.7999999999999994
vt 0.7999999999999999 0.7999999999999994
vt 0.7999999999999999 0.7999999999999998
vt 0 0.7999999999999998
vt 0 1
vt 1.6750000000000007 1
vt 1.6750000000000007 0.20000000000000007
vt 0 0.20000000000000007
vt 0 1
vt 1.6750000000000007 1
vt 1.6750000000000007 0.20000000000000007
vt 0 0.20000000000000007
vn 0 0 -1
vn 1 0 0
vn 0 0 1
vn -1 0 0
vn 0 1 0
vn 0 -1 0
usemtl none
f 44/136/37 47/135/37 45/134/37 42/133/37
f 43/140/38 44/139/38 42/138/38 41/137/38
f 48/144/39 43/143/39 41/142/39 46/141/39
f 47/148/40 48/147/40 46/146/40 45/145/40
f 46/152/41 41/151/41 42/150/41 45/149/41
f 47/156/42 44/155/42 43/154/42 48/153/42
o cylinder
v 0.4375 0.9062499999999999 -2.4980018054066023e-17
v 0.5125 0.90625 -2.4980018054066023e-17
v 0.4375 0.8958946609406726 0.024999999999999967
v 0.5125 0.8958946609406726 0.024999999999999967
v 0.4375 0.88125 0.010355339059327352
v 0.5125 0.88125 0.010355339059327352
v 0.4375 0.88125 -0.010355339059327399
v 0.5125 0.88125 -0.010355339059327399
v 0.4375 0.8958946609406726 -0.025000000000000022
v 0.5125 0.8958946609406726 -0.025000000000000022
v 0.4375 0.9166053390593273 -0.025000000000000022
v 0.5125 0.9166053390593273 -0.025000000000000022
v 0.4375 0.9312499999999999 -0.010355339059327414
v 0.5125 0.9312499999999999 -0.010355339059327414
v 0.4375 0.9312499999999999 0.010355339059327355
v 0.5125 0.9312499999999999 0.010355339059327355
v 0.4375 0.9166053390593273 0.024999999999999963
v 0.5125 0.9166053390593274 0.024999999999999963
vt 0.30625 0.72285625
vt 0.29160625 0.7375
vt 0.28125 0.7125
vt 0.25 0.8125
vt 0.3125 0.8125
vt 0.3125 0.875
vt 0.25 0.875
vt 0.04160625 0.575
vt 0.05625 0.58964375
vt 0.03125 0.6
vt 0.30625 0.7021437500000001
vt 0.30625 0.72285625
vt 0.28125 0.7125
vt 0 0.9375
vt 0.0625 0.9375
vt 0.0625 1
vt 0 1
vt 0.05625 0.58964375
vt 0.05625 0.6103562499999999
vt 0.03125 0.6
vt 0.29160625 0.6875
vt 0.30625 0.7021437500000001
vt 0.28125 0.7125
vt 0 0.6875
vt 0.0625 0.6875
vt 0.0625 0.75
vt 0 0.75
vt 0.05625 0.6103562499999999
vt 0.04160625 0.625
vt 0.03125 0.6
vt 0.27089375 0.6875
vt 0.29160625 0.6875
vt 0.28125 0.7125
vt 0 0.8125
vt 0.0625 0.8125
vt 0.0625 0.875
vt 0 0.875
vt 0.04160625 0.625
vt 0.020893750000000003 0.625
vt 0.03125 0.6
vt 0.25625 0.7021437500000001
vt 0.27089375 0.6875
vt 0.28125 0.7125
vt 0.25 0.9375
vt 0.3125 0.9375
vt 0.3125 1
vt 0.25 1
vt 0.020893750000000003 0.625
vt 0.006249999999999999 0.6103562499999999
vt 0.03125 0.6
vt 0.25625 0.72285625
vt 0.25625 0.7021437500000001
vt 0.28125 0.7125
vt 0.125 0.9375
vt 0.1875 0.9375
vt 0.1875 1
vt 0.125 1
vt 0.006249999999999999 0.6103562499999999
vt 0.006249999999999999 0.58964375
vt 0.03125 0.6
vt 0.27089375 0.7375
vt 0.25625 0.72285625
vt 0.28125 0.7125
vt 0.125 0.6875
vt 0.1875 0.6875
vt 0.1875 0.75
vt 0.125 0.75
vt 0.006249999999999999 0.58964375
vt 0.020893750000000003 0.575
vt 0.03125 0.6
vt 0.29160625 0.7375
vt 0.27089375 0.7375
vt 0.28125 0.7125
vt 0.125 0.8125
vt 0.1875 0.8125
vt 0.1875 0.875
vt 0.125 0.875
vt 0.020893750000000003 0.575
vt 0.04160625 0.575
vt 0.03125 0.6
vn -1 -2.220446049250313e-16 0
vn 1.5700924586837747e-16 -0.7071067811865474 0.7071067811865478
vn 1 2.220446049250313e-16 0
vn -1 -2.220446049250313e-16 0
vn 2.220446049250313e-16 -1 0
vn 1 2.220446049250313e-16 0
vn -1 -2.220446049250313e-16 0
vn 1.5700924586837754e-16 -0.7071067811865477 -0.7071067811865475
vn 1 2.220446049250313e-16 0
vn -1 -2.220446049250313e-16 0
vn 0 0 -1
vn 1 2.220446049250313e-16 0
vn -1 -2.220446049250313e-16 0
vn -1.5700924586837744e-16 0.7071067811865472 -0.7071067811865478
vn 1 2.220446049250313e-16 0
vn -1 -2.220446049250313e-16 0
vn -2.220446049250313e-16 1 -1.6751971770680808e-16
vn 1 2.220446049250313e-16 0
vn -1 -2.220446049250313e-16 0
vn -1.5700924586837754e-16 0.7071067811865477 0.7071067811865474
vn 1 2.220446049250313e-16 0
vn -1 -2.220446049250313e-16 0
vn -3.719684953536097e-32 1.6751971770680808e-16 1
vn 1 2.220446049250313e-16 0
usemtl m_7d24a41e-889a-4dff-154a-f7bd0848961f
f 53/157/43 51/158/43 49/159/43
f 51/160/44 53/161/44 54/162/44 52/163/44
f 52/164/45 54/165/45 50/166/45
f 55/167/46 53/168/46 49/169/46
f 53/170/47 55/171/47 56/172/47 54/173/47
f 54/174/48 56/175/48 50/176/48
f 57/177/49 55/178/49 49/179/49
f 55/180/50 57/181/50 58/182/50 56/183/50
f 56/184/51 58/185/51 50/186/51
f 59/187/52 57/188/52 49/189/52
f 57/190/53 59/191/53 60/192/53 58/193/53
f 58/194/54 60/195/54 50/196/54
f 61/197/55 59/198/55 49/199/55
f 59/200/56 61/201/56 62/202/56 60/203/56
f 60/204/57 62/205/57 50/206/57
f 63/207/58 61/208/58 49/209/58
f 61/210/59 63/211/59 64/212/59 62/213/59
f 62/214/60 64/215/60 50/216/60
f 65/217/61 63/218/61 49/219/61
f 63/220/62 65/221/62 66/222/62 64/223/62
f 64/224/63 66/225/63 50/226/63
f 51/227/64 65/228/64 49/229/64
f 65/230/65 51/231/65 52/232/65 66/233/65
f 66/234/66 52/235/66 50/236/66
o cube
v -0.2583734122634726 0.8270031754730548 0.04999999999999999
v -0.2583734122634726 0.8270031754730548 -0.06874999999999998
v -0.45524841226347257 0.48600567273293205 0.04999999999999999
v -0.45524841226347257 0.48600567273293205 -0.06874999999999998
v -0.36662658773652745 0.8895031754730548 -0.06874999999999998
v -0.36662658773652745 0.8895031754730548 0.04999999999999999
v -0.5635015877365275 0.548505672732932 -0.06874999999999998
v -0.5635015877365275 0.548505672732932 0.04999999999999999
vt 0.09375 0.71875
vt 0.15625 0.71875
vt 0.15625 0.53125
vt 0.09375 0.53125
vt 0.21875 1
vt 0.3125 1
vt 0.3125 0.8125
vt 0.21875 0.8125
vt 0.15625 0.71875
vt 0.21875 0.71875
vt 0.21875 0.53125
vt 0.15625 0.53125
vt 0 0.71875
vt 0.09375 0.71875
vt 0.09375 0.53125
vt 0 0.53125
vt 0.34375 0.59375
vt 0.28125 0.59375
vt 0.28125 0.6875
vt 0.34375 0.6875
vt 0.40625 0.6875
vt 0.34375 0.6875
vt 0.34375 0.59375
vt 0.40625 0.59375
vn 0 0 -1
vn 0.8660254037844387 -0.49999999999999994 0
vn 0 0 1
vn -0.8660254037844387 0.49999999999999994 0
vn 0.49999999999999994 0.8660254037844387 0
vn -0.49999999999999994 -0.8660254037844387 0
usemtl m_4e9afe19-5d7a-f196-49e5-b7d21fc7d893
f 70/240/67 73/239/67 71/238/67 68/237/67
f 69/244/68 70/243/68 68/242/68 67/241/68
f 74/248/69 69/247/69 67/246/69 72/245/69
f 73/252/70 74/251/70 72/250/70 71/249/70
f 72/256/71 67/255/71 68/254/71 71/253/71
f 73/260/72 70/259/72 69/258/72 74/257/72
o cube
v -0.02499999999999991 0.8249999999999997 0.09999999999999998
v -0.02499999999999991 0.8249999999999997 -0.1
v -0.02499999999999991 0.8249999999999997 0.09999999999999998
v -0.02499999999999991 0.8249999999999997 -0.1
v -0.4437500000000001 0.8249999999999997 -0.1
v -0.4437500000000001 0.8249999999999997 0.09999999999999998
v -0.4437500000000001 0.8249999999999997 -0.1
v -0.4437500000000001 0.8249999999999997 0.09999999999999998
vt 0 0.7999999999999989
vt 1.6750000000000007 0.7999999999999989
vt 1.6750000000000007 0.7999999999999994
vt 0 0.7999999999999994
vt 0 0.7999999999999989
vt 0.7999999999999999 0.7999999999999989
vt 0.7999999999999999 0.7999999999999994
vt 0 0.7999999999999994
vt 0 0.7999999999999989
vt 1.6750000000000007 0.7999999999999989
vt 1.6750000000000007 0.7999999999999994
vt 0 0.7999999999999994
vt 0 0.7999999999999989
vt 0.7999999999999999 0.7999999999999989
vt 0.7999999999999999 0.7999999999999994
vt 0 0.7999999999999994
vt 0 1
vt 1.6750000000000007 1
vt 1.6750000000000007 0.20000000000000007
vt 0 0.20000000000000007
vt 0 1
vt 1.6750000000000007 1
vt 1.6750000000000007 0.20000000000000007
vt 0 0.20000000000000007
vn 0 0 -1
vn 1 0 0
vn 0 0 1
vn -1 0 0
vn 0 1 0
vn 0 -1 0
usemtl none
f 78/264/73 81/263/73 79/262/73 76/261/73
f 77/268/74 78/267/74 76/266/74 75/265/74
f 82/272/75 77/271/75 75/270/75 80/269/75
f 81/276/76 82/275/76 80/274/76 79/273/76
f 80/280/77 75/279/77 76/278/77 79/277/77
f 81/284/78 78/283/78 77/282/78 82/281/78
o cube
v -0.02499999999999991 0.875 0.09999999999999998
v -0.02499999999999991 0.875 -0.1
v -0.02499999999999991 0.8124999999999998 0.09999999999999998
v -0.02499999999999991 0.8124999999999998 -0.1
v -0.45000000000000007 0.875 -0.1
v -0.45000000000000007 0.875 0.09999999999999998
v -0.45000000000000007 0.8124999999999998 -0.1
v -0.45000000000000007 0.8124999999999998 0.09999999999999998
vt 0.21875 0.71875
vt 0.4375 0.71875
vt 0.4375 0.6875
vt 0.21875 0.6875
vt 0.375 0.78125
vt 0.46875 0.78125
vt 0.46875 0.75
vt 0.375 0.75
vt 0.3125 1
vt 0.53125 1
vt 0.53125 0.96875
vt 0.3125 0.96875
vt 0.375 0.75
vt 0.46875 0.75
vt 0.46875 0.71875
vt 0.375 0.71875
vt 0.21875 0.90625
vt 0 0.90625
vt 0 1
vt 0.21875 1
vt 0.21875 0.90625
vt 0 0.90625
vt 0 0.8125
vt 0.21875 0.8125
vn 0 0 -1
vn 1 0 0
vn 0 0 1
vn -1 0 0
vn 0 1 0
vn 0 -1 0
usemtl m_4e9afe19-5d7a-f196-49e5-b7d21fc7d893
f 86/288/79 89/287/79 87/286/79 84/285/79
f 85/292/80 86/291/80 84/290/80 83/289/80
f 90/296/81 85/295/81 83/294/81 88/293/81
f 89/300/82 90/299/82 88/298/82 87/297/82
f 88/304/83 83/303/83 84/302/83 87/301/83
f 89/308/84 86/307/84 85/306/84 90/305/84
o cube
v -0.18749999999999978 0.7312499999999998 0.04375
v -0.18749999999999978 0.7312499999999998 -0.018750000000000003
v -0.32499999999999996 0.7312499999999998 0.04375
v -0.32499999999999996 0.7312499999999998 -0.018750000000000003
v -0.18749999999999978 0.7562499999999999 -0.018750000000000003
v -0.18749999999999978 0.7562499999999999 0.04375
v -0.32499999999999996 0.7562499999999998 -0.018750000000000003
v -0.32499999999999996 0.7562499999999998 0.04375
vt 0.21875 0.5625
vt 0.25 0.5625
vt 0.25 0.5
vt 0.21875 0.5
vt 0.25 0.5625
vt 0.28125 0.5625
vt 0.28125 0.5
vt 0.25 0.5
vt 0.28125 0.5625
vt 0.3125 0.5625
vt 0.3125 0.5
vt 0.28125 0.5
vt 0.4375 0.71875
vt 0.46875 0.71875
vt 0.46875 0.65625
vt 0.4375 0.65625
vt 0.46875 0.59375
vt 0.4375 0.59375
vt 0.4375 0.625
vt 0.46875 0.625
vt 0.4375 0.5625
vt 0.40625 0.5625
vt 0.40625 0.53125
vt 0.4375 0.53125
vn 0 0 -1
vn 2.220446049250313e-16 -1 0
vn 0 0 1
vn -2.220446049250313e-16 1 0
vn 1 2.220446049250313e-16 0
vn -1 -2.220446049250313e-16 0
usemtl m_4e9afe19-5d7a-f196-49e5-b7d21fc7d893
f 94/312/85 97/311/85 95/310/85 92/309/85
f 93/316/86 94/315/86 92/314/86 91/313/86
f 98/320/87 93/319/87 91/318/87 96/317/87
f 97/324/88 98/323/88 96/322/88 95/321/88
f 96/328/89 91/327/89 92/326/89 95/325/89
f 97/332/90 94/331/90 93/330/90 98/329/90
o cube
v -0.18750000000000006 0.8250000000000001 0.018749999999999996
v -0.18750000000000006 0.8250000000000001 0.012499999999999997
v -0.18750000000000006 0.7500000000000001 0.018749999999999996
v -0.18750000000000006 0.7500000000000001 0.012499999999999997
v -0.31250000000000006 0.8250000000000001 0.012499999999999997
v -0.31250000000000006 0.8250000000000001 0.018749999999999996
v -0.31250000000000006 0.7500000000000001 0.012499999999999997
v -0.31250000000000006 0.7500000000000001 0.018749999999999996
vt 0 1
vt 0.5 1
vt 0.5 0.6875
vt 0 0.6875
vt 0.5 0.5
vt 0.5625 0.5
vt 0.5625 0.1875
vt 0.5 0.1875
vt 0 0.5
vt 0.5 0.5
vt 0.5 0.1875
vt 0 0.1875
vt 0.75 0.5
vt 0.8125 0.5
vt 0.8125 0.1875
vt 0.75 0.1875
vt 1 0.9375
vt 0.5 0.9375
vt 0.5 1
vt 1 1
vt 1 0.75
vt 0.5 0.75
vt 0.5 0.6875
vt 1 0.6875
vn 0 0 -1
vn 1 0 0
vn 0 0 1
vn -1 0 0
vn 0 1 0
vn 0 -1 0
usemtl m_5ff52509-b757-b09a-8339-324169813ba4
f 102/336/91 105/335/91 103/334/91 100/333/91
f 101/340/92 102/339/92 100/338/92 99/337/92
f 106/344/93 101/343/93 99/342/93 104/341/93
f 105/348/94 106/347/94 104/346/94 103/345/94
f 104/352/95 99/351/95 100/350/95 103/349/95
f 105/356/96 102/355/96 101/354/96 106/353/96
o cube
v 0.3999999999999998 0.9999999999999992 0.012499999999999983
v 0.3999999999999998 0.9999999999999992 -0.012499999999999983
v 0.3999999999999998 0.9500000000000001 0.012499999999999983
v 0.3999999999999998 0.9500000000000001 -0.012499999999999983
v 0.38749999999999973 0.9999999999999992 -0.012499999999999983
v 0.38749999999999973 0.9999999999999992 0.012499999999999983
v 0.38749999999999973 0.9500000000000001 -0.012499999999999983
v 0.38749999999999973 0.9500000000000001 0.012499999999999983
vt 0.3125 0.875
vt 0.5 0.875
vt 0.5 0.84375
vt 0.3125 0.84375
vt 0.375 0.90625
vt 0.46875 0.90625
vt 0.46875 0.875
vt 0.375 0.875
vt 0.3125 0.84375
vt 0.5 0.84375
vt 0.5 0.8125
vt 0.3125 0.8125
vt 0.375 0.8125
vt 0.46875 0.8125
vt 0.46875 0.78125
vt 0.375 0.78125
vt 0.1875 0.71875
vt 0 0.71875
vt 0 0.8125
vt 0.1875 0.8125
vt 0.375 0.8125
vt 0.1875 0.8125
vt 0.1875 0.71875
vt 0.375 0.71875
vn 0 0 -1
vn 1 0 0
vn 0 0 1
vn -1 0 0
vn 0 1 0
vn 0 -1 0
usemtl m_4e9afe19-5d7a-f196-49e5-b7d21fc7d893
f 110/360/97 113/359/97 111/358/97 108/357/97
f 109/364/98 110/363/98 108/362/98 107/361/98
f 114/368/99 109/367/99 107/366/99 112/365/99
f 113/372/100 114/371/100 112/370/100 111/369/100
f 112/376/101 107/375/101 108/374/101 111/373/101
f 113/380/102 110/379/102 109/378/102 114/377/102
o cube
v -0.40000000000000013 0.9937499999999992 0.04374999999999998
v -0.40000000000000013 0.9937499999999992 0.018750000000000017
v -0.40000000000000013 0.9437500000000001 0.04374999999999998
v -0.40000000000000013 0.9437500000000001 0.018750000000000017
v -0.4125000000000003 0.9937499999999992 0.018750000000000017
v -0.4125000000000003 0.9937499999999992 0.04374999999999998
v -0.4125000000000003 0.9437500000000001 0.018750000000000017
v -0.4125000000000003 0.9437500000000001 0.04374999999999998
vt 0.3125 0.875
vt 0.5 0.875
vt 0.5 0.84375
vt 0.3125 0.84375
vt 0.375 0.90625
vt 0.46875 0.90625
vt 0.46875 0.875
vt 0.375 0.875
vt 0.3125 0.84375
vt 0.5 0.84375
vt 0.5 0.8125
vt 0.3125 0.8125
vt 0.375 0.8125
vt 0.46875 0.8125
vt 0.46875 0.78125
vt 0.375 0.78125
vt 0.1875 0.71875
vt 0 0.71875
vt 0 0.8125
vt 0.1875 0.8125
vt 0.375 0.8125
vt 0.1875 0.8125
vt 0.1875 0.71875
vt 0.375 0.71875
vn 0 0 -1
vn 1 0 0
vn 0 0 1
vn -1 0 0
vn 0 1 0
vn 0 -1 0
usemtl m_4e9afe19-5d7a-f196-49e5-b7d21fc7d893
f 118/384/103 121/383/103 119/382/103 116/381/103
f 117/388/104 118/387/104 116/386/104 115/385/104
f 122/392/105 117/391/105 115/390/105 120/389/105
f 121/396/106 122/395/106 120/394/106 119/393/106
f 120/400/107 115/399/107 116/398/107 119/397/107
f 121/404/108 118/403/108 117/402/108 122/401/108
o cube
v -0.40000000000000013 0.9937499999999992 -0.018750000000000017
v -0.40000000000000013 0.9937499999999992 -0.04374999999999998
v -0.40000000000000013 0.9437500000000001 -0.018750000000000017
v -0.40000000000000013 0.9437500000000001 -0.04374999999999998
v -0.4125000000000003 0.9937499999999992 -0.04374999999999998
v -0.4125000000000003 0.9937499999999992 -0.018750000000000017
v -0.4125000000000003 0.9437500000000001 -0.04374999999999998
v -0.4125000000000003 0.9437500000000001 -0.018750000000000017
vt 0.3125 0.875
vt 0.5 0.875
vt 0.5 0.84375
vt 0.3125 0.84375
vt 0.375 0.90625
vt 0.46875 0.90625
vt 0.46875 0.875
vt 0.375 0.875
vt 0.3125 0.84375
vt 0.5 0.84375
vt 0.5 0.8125
vt 0.3125 0.8125
vt 0.375 0.8125
vt 0.46875 0.8125
vt 0.46875 0.78125
vt 0.375 0.78125
vt 0.1875 0.71875
vt 0 0.71875
vt 0 0.8125
vt 0.1875 0.8125
vt 0.375 0.8125
vt 0.1875 0.8125
vt 0.1875 0.71875
vt 0.375 0.71875
vn 0 0 -1
vn 1 0 0
vn 0 0 1
vn -1 0 0
vn 0 1 0
vn 0 -1 0
usemtl m_4e9afe19-5d7a-f196-49e5-b7d21fc7d893
f 126/408/109 129/407/109 127/406/109 124/405/109
f 125/412/110 126/411/110 124/410/110 123/409/110
f 130/416/111 125/415/111 123/414/111 128/413/111
f 129/420/112 130/419/112 128/418/112 127/417/112
f 128/424/113 123/423/113 124/422/113 127/421/113
f 129/428/114 126/427/114 125/426/114 130/425/114
o cube
v -0.36662658773652745 0.8895031754730548 -0.06875
v -0.36662658773652745 0.8895031754730548 -0.07499999999999998
v -0.4697515877365274 0.7108854359425143 -0.06875
v -0.4697515877365274 0.7108854359425143 -0.07499999999999998
v -0.36662658773652745 0.8895031754730548 -0.07499999999999998
v -0.36662658773652745 0.8895031754730548 -0.06875
v -0.4697515877365274 0.7108854359425143 -0.07499999999999998
v -0.4697515877365274 0.7108854359425143 -0.06875
vt 0.15625 0.71875
vt 0.15625 0.71875
vt 0.15625 0.53125
vt 0.15625 0.53125
vt 0.21875 1
vt 0.3125 1
vt 0.3125 0.8125
vt 0.21875 0.8125
vt 0.15625 0.71875
vt 0.15625 0.71875
vt 0.15625 0.53125
vt 0.15625 0.53125
vt 0 0.71875
vt 0.09375 0.71875
vt 0.09375 0.53125
vt 0 0.53125
vt 0.34375 0.59375
vt 0.34375 0.59375
vt 0.34375 0.6875
vt 0.34375 0.6875
vt 0.40625 0.6875
vt 0.40625 0.6875
vt 0.40625 0.59375
vt 0.40625 0.59375
vn 0 0 -1
vn 0.8660254037844387 -0.49999999999999994 0
vn 0 0 1
vn -0.8660254037844387 0.49999999999999994 0
vn 0.49999999999999994 0.8660254037844387 0
vn -0.49999999999999994 -0.8660254037844387 0
usemtl m_4e9afe19-5d7a-f196-49e5-b7d21fc7d893
f 134/432/115 137/431/115 135/430/115 132/429/115
f 133/436/116 134/435/116 132/434/116 131/433/116
f 138/440/117 133/439/117 131/438/117 136/437/117
f 137/444/118 138/443/118 136/442/118 135/441/118
f 136/448/119 131/447/119 132/446/119 135/445/119
f 137/452/120 134/451/120 133/450/120 138/449/120
o cube
v -0.2583734122634726 0.8270031754730548 0.05625000000000001
v -0.2583734122634726 0.8270031754730548 0.050000000000000044
v -0.36149841226347257 0.6483854359425143 0.05625000000000001
v -0.36149841226347257 0.6483854359425143 0.050000000000000044
v -0.36662658773652745 0.8895031754730548 0.050000000000000044
v -0.36662658773652745 0.8895031754730548 0.05625000000000001
v -0.4697515877365274 0.7108854359425143 0.050000000000000044
v -0.4697515877365274 0.7108854359425143 0.05625000000000001
vt 0.09375 0.71875
vt 0.15625 0.71875
vt 0.15625 0.53125
vt 0.09375 0.53125
vt 0.21875 1
vt 0.3125 1
vt 0.3125 0.8125
vt 0.21875 0.8125
vt 0.15625 0.71875
vt 0.21875 0.71875
vt 0.21875 0.53125
vt 0.15625 0.53125
vt 0 0.71875
vt 0.09375 0.71875
vt 0.09375 0.53125
vt 0 0.53125
vt 0.34375 0.59375
vt 0.28125 0.59375
vt 0.28125 0.6875
vt 0.34375 0.6875
vt 0.40625 0.6875
vt 0.34375 0.6875
vt 0.34375 0.59375
vt 0.40625 0.59375
vn 0 0 -1
vn 0.8660254037844387 -0.49999999999999994 0
vn 0 0 1
vn -0.8660254037844387 0.49999999999999994 0
vn 0.49999999999999994 0.8660254037844387 0
vn -0.49999999999999994 -0.8660254037844387 0
usemtl m_4e9afe19-5d7a-f196-49e5-b7d21fc7d893
f 142/456/121 145/455/121 143/454/121 140/453/121
f 141/460/122 142/459/122 140/458/122 139/457/122
f 146/464/123 141/463/123 139/462/123 144/461/123
f 145/468/124 146/467/124 144/466/124 143/465/124
f 144/472/125 139/471/125 140/470/125 143/469/125
f 145/476/126 142/475/126 141/474/126 146/473/126
o cube
v -0.4125000000000001 0.6770031754730548 -0.06875
v -0.4125000000000001 0.6770031754730548 -0.07499999999999998
v -0.5031250000000002 0.5200360710371252 -0.06875
v -0.5031250000000002 0.5200360710371252 -0.07499999999999998
v -0.46662658773652754 0.7082531754730548 -0.07499999999999998
v -0.46662658773652754 0.7082531754730548 -0.06875
v -0.5572515877365276 0.5512860710371252 -0.07499999999999998
v -0.5572515877365276 0.5512860710371252 -0.06875
vt 0.09375 0.71875
vt 0.15625 0.71875
vt 0.15625 0.53125
vt 0.09375 0.53125
vt 0.21875 1
vt 0.3125 1
vt 0.3125 0.8125
vt 0.21875 0.8125
vt 0.15625 0.71875
vt 0.21875 0.71875
vt 0.21875 0.53125
vt 0.15625 0.53125
vt 0 0.71875
vt 0.09375 0.71875
vt 0.09375 0.53125
vt 0 0.53125
vt 0.34375 0.59375
vt 0.28125 0.59375
vt 0.28125 0.6875
vt 0.34375 0.6875
vt 0.40625 0.6875
vt 0.34375 0.6875
vt 0.34375 0.59375
vt 0.40625 0.59375
vn 0 0 -1
vn 0.8660254037844387 -0.49999999999999994 0
vn 0 0 1
vn -0.8660254037844387 0.49999999999999994 0
vn 0.49999999999999994 0.8660254037844387 0
vn -0.49999999999999994 -0.8660254037844387 0
usemtl m_4e9afe19-5d7a-f196-49e5-b7d21fc7d893
f 150/480/127 153/479/127 151/478/127 148/477/127
f 149/484/128 150/483/128 148/482/128 147/481/128
f 154/488/129 149/487/129 147/486/129 152/485/129
f 153/492/130 154/491/130 152/490/130 151/489/130
f 152/496/131 147/495/131 148/494/131 151/493/131
f 153/500/132 150/499/132 149/498/132 154/497/132
o cube
v -0.4125000000000001 0.6770031754730548 0.05625000000000001
v -0.4125000000000001 0.6770031754730548 0.050000000000000044
v -0.5031250000000002 0.5200360710371252 0.05625000000000001
v -0.5031250000000002 0.5200360710371252 0.050000000000000044
v -0.46662658773652754 0.7082531754730548 0.050000000000000044
v -0.46662658773652754 0.7082531754730548 0.05625000000000001
v -0.5572515877365276 0.5512860710371252 0.050000000000000044
v -0.5572515877365276 0.5512860710371252 0.05625000000000001
vt 0.09375 0.71875
vt 0.15625 0.71875
vt 0.15625 0.53125
vt 0.09375 0.53125
vt 0.21875 1
vt 0.3125 1
vt 0.3125 0.8125
vt 0.21875 0.8125
vt 0.15625 0.71875
vt 0.21875 0.71875
vt 0.21875 0.53125
vt 0.15625 0.53125
vt 0 0.71875
vt 0.09375 0.71875
vt 0.09375 0.53125
vt 0 0.53125
vt 0.34375 0.59375
vt 0.28125 0.59375
vt 0.28125 0.6875
vt 0.34375 0.6875
vt 0.40625 0.6875
vt 0.34375 0.6875
vt 0.34375 0.59375
vt 0.40625 0.59375
vn 0 0 -1
vn 0.8660254037844387 -0.49999999999999994 0
vn 0 0 1
vn -0.8660254037844387 0.49999999999999994 0
vn 0.49999999999999994 0.8660254037844387 0
vn -0.49999999999999994 -0.8660254037844387 0
usemtl m_4e9afe19-5d7a-f196-49e5-b7d21fc7d893
f 158/504/133 161/503/133 159/502/133 156/501/133
f 157/508/134 158/507/134 156/506/134 155/505/134
f 162/512/135 157/511/135 155/510/135 160/509/135
f 161/516/136 162/515/136 160/514/136 159/513/136
f 160/520/137 155/519/137 156/518/137 159/517/137
f 161/524/138 158/523/138 157/522/138 162/521/138
o cube
v -0.2583734122634726 0.8270031754730548 -0.06875
v -0.2583734122634726 0.8270031754730548 -0.07499999999999998
v -0.36149841226347257 0.6483854359425143 -0.06875
v -0.36149841226347257 0.6483854359425143 -0.07499999999999998
v -0.36662658773652745 0.8895031754730548 -0.07499999999999998
v -0.36662658773652745 0.8895031754730548 -0.06875
v -0.4697515877365274 0.7108854359425143 -0.07499999999999998
v -0.4697515877365274 0.7108854359425143 -0.06875
vt 0.09375 0.71875
vt 0.15625 0.71875
vt 0.15625 0.53125
vt 0.09375 0.53125
vt 0.21875 1
vt 0.3125 1
vt 0.3125 0.8125
vt 0.21875 0.8125
vt 0.15625 0.71875
vt 0.21875 0.71875
vt 0.21875 0.53125
vt 0.15625 0.53125
vt 0 0.71875
vt 0.09375 0.71875
vt 0.09375 0.53125
vt 0 0.53125
vt 0.34375 0.59375
vt 0.28125 0.59375
vt 0.28125 0.6875
vt 0.34375 0.6875
vt 0.40625 0.6875
vt 0.34375 0.6875
vt 0.34375 0.59375
vt 0.40625 0.59375
vn 0 0 -1
vn 0.8660254037844387 -0.49999999999999994 0
vn 0 0 1
vn -0.8660254037844387 0.49999999999999994 0
vn 0.49999999999999994 0.8660254037844387 0
vn -0.49999999999999994 -0.8660254037844387 0
usemtl m_4e9afe19-5d7a-f196-49e5-b7d21fc7d893
f 166/528/139 169/527/139 167/526/139 164/525/139
f 165/532/140 166/531/140 164/530/140 163/529/140
f 170/536/141 165/535/141 163/534/141 168/533/141
f 169/540/142 170/539/142 168/538/142 167/537/142
f 168/544/143 163/543/143 164/542/143 167/541/143
f 169/548/144 166/547/144 165/546/144 170/545/144